<svg width="64" height="64" viewBox="0 0 64 64" fill="none" xmlns="http://www.w3.org/2000/svg">
<g opacity="0.6" clip-path="url(#clip0_1_2802)">
<path d="M54.3614 20.0091C53.1179 8.7705 43.5646 0 32 0C20.4354 0 10.8821 8.7705 9.63863 20.0091C4.29163 20.2004 0 24.6073 0 30C0 33.6222 1.94988 36.9043 5 38.6493V51.5C5 55.6355 8.3645 59 12.5 59H14.5V61.5C14.5 62.8807 15.6193 64 17 64C18.3808 64 19.5 62.8807 19.5 61.5V59H44.5V61.5C44.5 62.8807 45.6193 64 47 64C48.3807 64 49.5 62.8807 49.5 61.5V59H51.5C55.6355 59 59 55.6355 59 51.5V38.6493C62.0501 36.9043 64 33.6224 64 30C64 24.6073 59.7084 20.2004 54.3614 20.0091ZM32 5C41.1792 5 48.7299 12.104 49.4441 21.1026C46.2154 22.7628 44 26.1265 44 30V40H20V30C20 26.1265 17.7846 22.7628 14.5559 21.1026C15.2701 12.104 22.8208 5 32 5ZM55.685 34.6864C54.6768 35.0341 54 35.9832 54 37.0498V51.5C54 52.8785 52.8785 54 51.5 54H12.5C11.1215 54 10 52.8785 10 51.5V37.0499C10 35.9832 9.32325 35.0341 8.315 34.6865C6.33225 34.0026 5 32.1194 5 30C5 27.243 7.243 25 10 25C12.757 25 15 27.243 15 30V42.5C15 43.8807 16.1192 45 17.5 45H46.5C47.8807 45 49 43.8807 49 42.5V30C49 27.243 51.243 25 54 25C56.757 25 59 27.243 59 30C59 32.1194 57.6678 34.0026 55.685 34.6864Z" fill="black"/>
<path d="M32 17.5C33.3807 17.5 34.5 16.3807 34.5 15C34.5 13.6193 33.3807 12.5 32 12.5C30.6193 12.5 29.5 13.6193 29.5 15C29.5 16.3807 30.6193 17.5 32 17.5Z" fill="black"/>
<path d="M24.5 25C25.8807 25 27 23.8807 27 22.5C27 21.1193 25.8807 20 24.5 20C23.1193 20 22 21.1193 22 22.5C22 23.8807 23.1193 25 24.5 25Z" fill="black"/>
<path d="M39.5 25C40.8807 25 42 23.8807 42 22.5C42 21.1193 40.8807 20 39.5 20C38.1193 20 37 21.1193 37 22.5C37 23.8807 38.1193 25 39.5 25Z" fill="black"/>
<path d="M32 32.5C33.3807 32.5 34.5 31.3807 34.5 30C34.5 28.6193 33.3807 27.5 32 27.5C30.6193 27.5 29.5 28.6193 29.5 30C29.5 31.3807 30.6193 32.5 32 32.5Z" fill="black"/>
</g>
<defs>
<clipPath id="clip0_1_2802">
<rect width="64" height="64" fill="white"/>
</clipPath>
</defs>
</svg>
