<svg width="65" height="18" viewBox="0 0 65 18" fill="none" xmlns="http://www.w3.org/2000/svg">
<path d="M1.46866 12.4039L1.3094 12.3685L1.18508 12.3331L1.02582 12.2624L0.884271 12.1916L0.725015 12.1031L0.636541 12.0323L0.494991 11.9261L0.388825 11.82L0.300351 11.6961L0.211877 11.5546L0.123403 11.4307L0.0526212 11.2715L0.0177062 11.1299L0 10.9706V10.7937L0.0177062 10.6344V10.4752L0.0526212 10.2629L0.123403 10.0505L0.194185 9.89127L0.264498 9.74972L0.352972 9.62585L0.459138 9.51968L0.706854 9.30735L0.848419 9.21888L1.2377 9.04193L1.39694 8.97116L1.62698 8.93576L1.83931 8.90038L2.01626 8.88269H2.17551L2.31706 8.90038L2.47678 8.93576L2.8656 9.00655L3.07793 9.04193L3.23719 9.09502L3.7331 9.34275L3.91004 9.44845L4.0516 9.48383L4.14008 9.46614L4.22855 9.34228L4.29932 9.14764L4.33472 9.02377L4.40503 8.79375L4.4935 8.58141L4.5112 8.47525L4.58151 8.2983L4.63458 8.13904L4.68767 7.99749L4.75799 7.67898L4.79337 7.53743L4.81106 7.37817L4.86415 7.21893L4.91724 7.07737L4.96985 6.90042L5.07602 6.47576L5.11141 6.29881L5.18173 5.98031L5.25251 5.76798L5.30559 5.53794L5.35821 5.3787L5.41128 5.23713L5.51699 4.91864L5.55238 4.75938L5.69394 4.33472L5.72933 4.17546L5.78242 4.0162L5.92397 3.73309L5.99475 3.57385L6.20708 3.14917L6.29509 3.02531L6.38356 2.86606L6.48973 2.7422L6.5782 2.63603L6.68437 2.51217L6.84362 2.35292L7.02057 2.22906L7.16259 2.14059L7.28645 2.0698L7.42801 2.01673L7.62265 1.96364H7.7642L7.92393 1.99902L8.06548 2.0875L8.18933 2.17597L8.26012 2.29984L8.27781 2.44139L8.20703 2.56525L8.03009 2.70681L7.85314 2.83067L7.72929 2.95453L7.37539 3.44998L7.30461 3.59154L7.23383 3.7508L7.16351 3.94544L7.07504 4.15777L7.02196 4.35241L6.96934 4.56474L6.86317 4.91864L6.81055 5.13097L6.73979 5.3433L6.72208 5.48486L6.77517 5.57334L6.91672 5.60872L7.39402 5.57334L7.76559 5.52025L8.04871 5.48486L8.29644 5.41408L8.45569 5.3787L8.57955 5.32561L8.95114 5.20175L9.14578 5.09558L9.32273 5.0248L9.49966 4.88324L9.7297 4.724L9.88896 4.56474L10.0133 4.42319L10.1371 4.22855L10.2787 3.99851L10.3672 3.76849L10.4198 3.60923L10.4729 3.37921L10.5083 3.16688V2.77758L10.4729 2.54756L10.4198 2.3883L10.3136 2.19366L10.1898 2.01673L10.0654 1.85747L9.92387 1.69822L9.74692 1.57436L9.58768 1.50358L9.1984 1.32663L9.02145 1.23815L8.87989 1.18508L8.72018 1.14969L8.06594 1.07891H7.81821L7.64127 1.06122L7.32277 1.07891L6.95118 1.1143L6.72116 1.14969L6.49112 1.20277L6.26109 1.23815L6.06692 1.27355L5.9072 1.32663L5.73025 1.39741L5.62408 1.43279L5.30559 1.57436L5.16357 1.62745L5.022 1.69822L4.89814 1.78716L4.75613 1.89332L4.63227 1.9818L4.4907 2.07027L3.92448 2.6365L3.836 2.76036L3.748 2.90192L3.67721 3.04347L3.62414 3.20273L3.55383 3.34428L3.50074 3.50353L3.46535 3.64508L3.44766 3.80434V4.14053L3.46535 4.29979L3.50074 4.51212L3.53613 4.74216L3.58921 4.9014L3.64183 5.04296L3.69492 5.20221L3.83647 5.48532L3.90725 5.64458L3.88956 5.80383L3.80109 5.96307L3.69492 6.06924L3.53566 6.17542L3.37641 6.2285L3.21717 6.26388L3.05744 6.2285L2.91589 6.12233L2.79202 6.01616L2.6854 5.89231L2.56153 5.76843L2.47352 5.64458L2.36689 5.52072L2.2961 5.37915L2.20764 5.2376L2.13686 5.09604L2.08424 4.9014L2.06655 4.81292L2.03117 4.61829L1.99577 4.29979V3.80434L2.03117 3.48584L2.06655 3.30889L2.10146 3.16733L2.15455 3.00809L2.22534 2.86652L2.29565 2.70728L2.36642 2.56572L2.45489 2.44186L2.63184 2.15875L2.73801 2.01718L2.82648 1.89332L2.93265 1.76947L3.07421 1.64559L3.14499 1.57483L3.30423 1.43326L3.46349 1.3094L3.65813 1.16784L3.80015 1.07938L3.92401 0.990906L4.06557 0.88474L4.18943 0.813958L4.34915 0.743176L4.54379 0.654702L4.64996 0.601626L4.87998 0.49546L5.05693 0.424678L5.21619 0.353896L5.78242 0.212346L6.11861 0.106166L6.27786 0.088474L6.45481 0.0530901L6.75607 0.0353981L6.91533 0.0177062L7.12766 0H8.20657L8.56045 0.0353981L8.7728 0.0707821L9.25055 0.141564L9.40979 0.176948L9.56905 0.230038L9.7106 0.283114L9.85217 0.353896L10.1353 0.477754L10.3122 0.566228L10.5246 0.6901L10.9492 0.955508L11.0731 1.04398L11.3031 1.27402L11.4093 1.41557L11.4801 1.53943L11.5681 1.69868L11.6565 1.89332L11.7627 2.08796L11.8335 2.24722L11.8689 2.38877L11.9215 2.54803L11.9392 2.70728V2.84883L11.9569 3.00809V3.3969L11.9215 3.62692L11.8866 3.80387L11.8335 3.96313L11.7804 4.10468L11.6742 4.28163L11.6035 4.42319L11.5155 4.52889L11.4265 4.65275L11.108 5.02433L10.8603 5.23667L10.7364 5.32514L10.4533 5.50209L10.1707 5.64365L9.86939 5.7852L9.55089 5.89137L9.39163 5.90906L9.285 5.92675V5.94446L9.40933 5.97984L9.99326 6.17448L10.1348 6.24526L10.2587 6.33374L10.4007 6.42221L10.5423 6.52838L10.7192 6.66993L10.8785 6.79379L11.0023 6.91766L11.1085 7.0769L11.2146 7.21846L11.3031 7.37772L11.427 7.55465L11.4978 7.7316L11.5858 7.92624L11.6389 8.13857L11.6919 8.29783L11.7096 8.45709L11.7446 8.61633L11.7622 8.84637V9.0587L11.7273 9.23565L11.6742 9.46567L11.6211 9.76648L11.5504 10.0496L11.4619 10.3327L11.3734 10.5627L11.3031 10.722L11.2323 10.8459L11.1262 11.0051L10.9842 11.182L10.8603 11.3413L10.7541 11.4652L10.6479 11.5713L10.5241 11.6775L10.1702 11.9252L9.99326 11.996L9.79862 12.1022L9.58627 12.1729L9.42703 12.2437L9.00235 12.3676L8.68386 12.4384H8.52413L8.29458 12.4561L7.92299 12.4738H7.62218L7.42754 12.4561L7.26829 12.4207L7.05595 12.3853L6.50742 12.2614L6.34818 12.2083L6.20661 12.1552L6.04737 12.1022L5.90534 12.0314L5.72839 11.9252L5.53375 11.8191L5.21525 11.6421L5.0737 11.5536L4.94937 11.4475L4.8255 11.359L4.70164 11.3236L4.54239 11.3767L4.38268 11.5183L4.27651 11.6421L4.11725 11.766L3.9757 11.8898L3.79876 12.0137L3.56872 12.1376L3.35639 12.2437L3.19714 12.2968L3.05511 12.3499L2.89587 12.403L2.57736 12.4384L2.36503 12.4561H2.135L1.63955 12.4384L1.46866 12.4039ZM1.92872 9.90943L1.78716 9.96252L1.64561 10.0687L1.50404 10.2279L1.37972 10.4049L1.3271 10.5641L1.34479 10.7765L1.39741 10.9888L1.48588 11.1304L1.60974 11.2365L1.769 11.3073L1.87516 11.3427L2.05211 11.3958L2.28214 11.4135H2.49401L2.67143 11.3781L2.98993 11.2365L3.13148 11.1304L3.25535 11.0242L3.37968 10.9003L3.46768 10.7588L3.57432 10.6349L3.62692 10.4934L3.6097 10.3872L3.50307 10.2815L3.36152 10.2107L3.06071 10.0515L2.90145 9.96298L2.7422 9.9099L2.58296 9.87452L2.44139 9.85681H2.28214L2.0875 9.87452L1.92872 9.90943ZM6.29834 6.83058L6.24573 6.98983L6.19264 7.20216L6.12186 7.4145L6.05155 7.73301L5.85691 8.31646L5.71489 8.77652L5.64458 8.97116L5.5915 9.1481L5.52072 9.32504L5.30884 9.96205L5.23807 10.1036L5.20267 10.2452L5.22038 10.369L5.30884 10.4752L5.4504 10.5814L5.57426 10.6698L5.71583 10.7406L6.1228 10.9706L6.28205 11.0237L6.42407 11.0768L6.60102 11.1476L6.70672 11.183L6.88367 11.2538L7.06061 11.2892L7.16678 11.3068L7.36142 11.3422L7.67992 11.3776H8.12229L8.31693 11.3599L8.52879 11.3245L8.75883 11.2715L8.91807 11.2007L9.06009 11.1476L9.20166 11.0591L9.32551 10.9706L9.57324 10.7406L9.67941 10.6344L9.80374 10.5283L9.89221 10.3867L9.99838 10.1921L10.0864 9.97975L10.1395 9.82049L10.1925 9.67894L10.2987 9.36044L10.3164 9.20119V8.72343L10.281 8.40493L10.2456 8.26337L10.1395 7.94487L10.0864 7.80331L10.0161 7.66176L9.6971 7.29017L9.5914 7.184L9.46753 7.07784L9.3432 6.98936L9.21935 6.91858L9.0778 6.84781L8.91807 6.75934L8.75883 6.70625L8.61727 6.65317L8.45801 6.61778L8.29877 6.5647L7.80332 6.47623L7.48481 6.44083L7.30786 6.42314H6.97167L6.81242 6.40544L6.63501 6.42314L6.49345 6.45853L6.40544 6.54699L6.33466 6.67087L6.29834 6.83058Z" fill="#343A40"/>
<path d="M19.0566 4.95529L19.2335 4.9376L19.4105 4.95529L19.5697 4.973L19.7471 5.00838L19.8887 5.06147L20.0302 5.14993L20.101 5.2915L20.0479 5.50383L19.9241 5.87542L19.7821 6.15853L19.7294 6.31779L19.6941 6.45934L19.641 6.6186L19.5702 6.76015L19.4999 7.07864L19.4468 7.2379L19.3937 7.37946L19.3411 7.5564L19.288 7.71565L19.2526 7.83951L19.1995 7.99877L19.1646 8.14033L19.1292 8.29957L19.0761 8.45883L18.97 8.93658L18.9169 9.14892L18.8638 9.37894L18.8107 9.55589L18.7758 9.76822L18.7404 9.99826L18.7227 10.1752V10.3344L18.705 10.4937V10.653L18.7404 10.9715L18.7935 11.1307L18.882 11.2546L19.0058 11.3254L19.1655 11.343L19.3071 11.3254L19.4664 11.2546L19.7141 11.0776L19.8379 10.9538L19.9618 10.8476L20.0861 10.7591L20.2985 10.5114L20.4754 10.2637L20.5816 10.1221L20.6877 9.99826L20.758 9.8744L20.8288 9.71514L20.9173 9.57358L21.0058 9.41434L21.0761 9.32586L21.1823 9.14892L21.2707 8.97197L21.3592 8.77733L21.5185 8.45883L21.6246 8.31727L21.7662 8.22879L21.9785 8.28188L22.1201 8.45883L22.1378 8.63578L22.0847 8.79502L22.0144 8.93658L21.9259 9.06044L21.8374 9.20201L21.6959 9.48512L21.6428 9.64436L21.5725 9.78593L21.3955 10.069L21.3071 10.1929L21.1301 10.476L21.0421 10.5999L20.8298 10.8476L20.7413 10.9715L20.6351 11.113L20.4228 11.3607L20.1928 11.5731L20.0866 11.6792L19.8389 11.8916L19.5562 12.0685L19.1316 12.2804L18.8126 12.3512L18.6533 12.3689L18.441 12.3512L18.2291 12.2981L18.0517 12.2273L17.8925 12.0858L17.7509 11.9265L17.6447 11.7672L17.5563 11.5549L17.486 11.2718L17.4506 10.9887L17.4329 10.7587L17.4506 10.5817L17.486 10.4048L17.4683 10.334L17.4152 10.4225L17.3267 10.564L17.1498 10.8117L17.0436 10.9533L16.7251 11.3249L16.3884 11.6611L16.2827 11.7849L16.1589 11.8734L16.0168 11.9619L15.7342 12.1211L15.4511 12.2627L15.2918 12.3158L14.6548 12.4573L14.4956 12.475L14.3363 12.4573L14.1594 12.4396L14.0001 12.4219L13.8763 12.3866L13.7165 12.3335L13.575 12.2627L13.3277 12.0858L13.2034 11.9619L13.0265 11.7142L12.9561 11.5549L12.9031 11.4134L12.8854 11.2541L12.8677 11.0772V10.5994L12.8854 10.4402L12.9208 10.2809L12.9384 10.1216L12.9734 9.96241L12.9911 9.80315L13.0265 9.59082L13.0795 9.36078L13.1499 9.04228L13.2029 8.88302L13.256 8.67069L13.3799 8.2991L13.433 8.15755L13.4683 7.9983L13.521 7.83906L13.5387 7.69749L13.7864 6.95432L13.8395 6.77738L14.0341 6.19346L14.0872 6.0519L14.1398 5.89264L14.2283 5.68031L14.2809 5.46798L14.334 5.30872L14.4048 5.16717L14.5286 5.0787L14.6879 5.00792L14.8471 4.97253L15.0245 4.93713L15.1838 4.95484L15.343 4.99022L15.5023 5.04331L15.6439 5.11408L15.7146 5.22025V5.36181L15.6792 5.52107L15.6262 5.68031L15.5912 5.82187L15.4846 6.14037L15.4138 6.31732L15.3966 6.42349L15.3258 6.63582L15.2727 6.72429L15.2201 6.91893L15.167 7.07819L15.1139 7.30821L15.0432 7.53825L15.0082 7.64442L14.9375 7.83906L14.8844 7.9983L14.849 8.15755L14.7964 8.2991L14.7256 8.61762L14.7079 8.77686L14.6725 8.93611L14.6199 9.09537L14.5491 9.41387L14.5137 9.55542L14.4611 9.71467L14.4257 9.87393L14.3726 10.104L14.3372 10.3871V10.7056L14.3726 10.9887L14.5142 11.2364L14.7442 11.378L14.9566 11.4134L15.2751 11.3426L15.4166 11.2718L15.541 11.2187L15.6825 11.1479L15.8418 11.0595L15.9833 10.971L16.231 10.7587L16.3377 10.6525L16.6562 10.2809L16.7442 10.157L16.8508 9.99779L16.957 9.82084L17.0813 9.6262L17.2229 9.34356L17.3109 9.1843L17.3817 9.04275L17.4524 8.88349L17.505 8.74194L17.5581 8.58269L17.6112 8.44114L17.6643 8.28188L17.7169 8.14033L17.7877 7.98108L17.8408 7.83951L17.9111 7.52101L17.9642 7.36176L18.0173 7.22021L18.0699 7.06095L18.123 6.9194L18.1937 6.76015L18.2291 6.6009L18.2641 6.45934L18.3707 6.14084L18.4238 5.99928L18.5299 5.68078L18.5653 5.53921L18.6184 5.37997L18.6887 5.23841L18.7772 5.09686L18.9011 5.00838L19.0566 4.95529Z" fill="#343A40"/>
<path d="M29.9737 8.91839L29.9029 9.07764L29.8321 9.21919L29.7441 9.36074L29.6733 9.50231L29.5853 9.66156L29.4969 9.80311L29.4089 9.92697L28.9842 10.4224L28.8598 10.5463L28.736 10.6525L28.6121 10.7409L28.4706 10.8471L28.3463 10.9356L28.187 11.0064L28.0454 11.0771L27.8862 11.1302L27.7619 11.1656L27.6026 11.201L27.3903 11.2364L27.2133 11.2541L27.0895 11.2718H26.9125L26.7533 11.2541H26.6112L26.5056 11.3072L26.4166 11.4133L26.3286 11.5372L26.2047 11.661L26.045 11.8026L25.8681 11.9442L25.7088 12.0503L25.5142 12.1565L25.3372 12.2627L25.178 12.3334L24.948 12.3865L24.6653 12.4396L24.364 12.4573L24.1345 12.475H23.9571L23.7801 12.4573L23.6209 12.4042L23.497 12.3511L23.3378 12.2804L23.1785 12.1919L22.9131 11.9972L22.7892 11.8911L22.6649 11.7672L22.3999 11.3425L22.3469 11.1833L22.2407 10.7055L22.223 10.5286V10.2101L22.2579 10.0331L22.3641 9.8385L22.5764 9.66156L22.8414 9.59078L23.0537 9.60847L23.1603 9.71464L23.178 9.8562V10.0154L23.1603 10.1747L23.178 10.334L23.2483 10.6525L23.3191 10.794L23.4071 10.9356L23.4956 11.0594L23.6018 11.1833L23.7261 11.2718L23.8677 11.3425L24.0092 11.3956L24.1685 11.431H24.3454L24.4874 11.4133L24.6467 11.3602L24.7705 11.2895L24.9121 11.1833L25.0364 11.0771L25.1249 10.9002V10.7232L25.0364 10.5994L24.9303 10.4578L24.8599 10.3162L24.8423 10.1393L24.8599 9.98006L24.948 9.8208L25.0546 9.71464L25.3195 9.53769L25.3903 9.44922V9.32536L25.3549 9.1661L25.3018 9.00686L25.2492 8.8653L25.1961 8.70605L25.1608 8.56449L25.1077 8.40525L25.0551 8.26368L25.002 8.10443L24.9489 7.96288L24.8786 7.82131L24.8255 7.67976L24.7724 7.52051L24.7193 7.37896L24.6667 7.2197L24.6136 7.07815L24.5605 6.9189L24.5079 6.77735L24.4548 6.6004L24.3841 6.38807L24.331 6.17572L24.2784 6.01648L24.243 5.85722L24.2253 5.71567L24.2076 5.55641L24.1722 5.45025L24.0665 5.48563L23.8188 5.73336L23.7126 5.85722L23.5356 6.10495L23.4472 6.2465L23.3592 6.37036L23.1645 6.72426L23.0579 6.9189L22.9876 7.07815L22.8991 7.20201L22.8283 7.34356L22.758 7.46743L22.6872 7.60898L22.5815 7.83902L22.4749 8.03366L22.4046 8.1929L22.2453 8.47602L22.1746 8.61758L22.1038 8.77682L21.9976 8.97146L21.8561 9.13072L21.6963 9.1661L21.5194 9.07764L21.4314 8.93608L21.4491 8.77682L21.4845 8.61758L21.626 8.33447L21.7145 8.17521L21.7676 8.06904L21.8561 7.90979L21.9264 7.75055L21.9795 7.60898L22.1918 7.18432L22.2798 7.04275L22.3506 6.88351L22.4567 6.68887L22.5811 6.49423L22.6691 6.33498L22.7576 6.19343L22.8279 6.05186L22.9168 5.8926L22.9876 5.80413L23.0756 5.64489L23.1641 5.52103L23.5883 5.02557L23.8006 4.79555L23.9068 4.67169L24.0306 4.54782L24.1545 4.44165L24.4376 4.2647L24.5969 4.19393L24.7738 4.14084L24.9331 4.10546L25.0751 4.08777L25.2343 4.10546L25.3936 4.14084L25.5351 4.22932L25.6413 4.35318L25.6939 4.49474V4.654L25.6585 4.81324L25.5882 4.9548L25.4998 5.09635L25.4644 5.23792L25.4471 5.39716L25.4821 5.60949L25.5351 5.82184L25.5705 5.99877L25.6585 6.22881L25.747 6.51192L25.8532 6.79457L26.0478 7.29001L26.1186 7.44927L26.1894 7.6616L26.2955 7.85624L26.3663 8.0155L26.4189 8.15705L26.472 8.3163L26.6313 8.74097L26.6843 8.90022L26.7197 9.13025L26.7551 9.41336L26.7901 9.6434L26.8078 9.82033V10.2627L26.8254 10.4043L26.8785 10.4927L27.0201 10.5281H27.1793L27.4983 10.4927L27.8168 10.3866L27.9584 10.3335L28.2415 10.1565L28.3653 10.0504L28.6131 9.82033L28.8431 9.59031L28.9311 9.46645L29.285 8.90022L29.3558 8.75866L29.4261 8.59942L29.4792 8.45785L29.5676 8.3163L29.7269 8.21014L29.9392 8.26321L30.0985 8.44016V8.61711L30.0454 8.77637L29.9737 8.91839Z" fill="#343A40"/>
<path d="M33.7606 8.47618V8.67082L33.7076 8.83008L33.566 9.11319L33.4067 9.37861L33.3183 9.53786L33.2475 9.67895L33.1409 9.83821L33.0878 9.94437L32.9998 10.1036L32.9108 10.2452L32.8228 10.369L32.7162 10.5106L32.6282 10.6345L32.4512 10.9176L32.1327 11.2892L31.9209 11.5192L31.7965 11.643L31.6904 11.7669L31.566 11.8731L31.1768 12.1739L31.0529 12.2624L30.8937 12.3331L30.7344 12.3862L30.5929 12.4216L30.2739 12.4924H29.9731L29.7784 12.4747L29.6369 12.4216L29.4776 12.3685L29.3356 12.2801L29.2117 12.1744L29.1233 12.0505L29.0353 11.9089L28.9645 11.7497L28.9291 11.6081L28.8942 11.4489L28.8765 11.2896V11.1304L28.9114 10.8119L28.9468 10.6526L28.9999 10.4934L29.0706 10.1753L29.1233 10.0338L29.1587 9.87453L29.2117 9.71527L29.2648 9.57371L29.4241 9.09595L29.4418 8.9544L29.4771 8.79515L29.5298 8.63591L29.5652 8.47665L29.6005 8.3351L29.7067 8.01659L29.7598 7.80426L29.8129 7.57423L29.9186 7.25572L29.954 7.09648L29.9894 6.97261L30.0248 6.81336L30.0951 6.63642L30.1482 6.49485L30.2539 6.0171L30.3069 5.85786L30.36 5.64552L30.4303 5.41549L30.4834 5.25624L30.5542 5.11468L30.6599 5.02621L30.8191 4.95542L30.9612 4.93773L31.1381 4.95542L31.4566 4.99082L31.7397 5.09699L31.8277 5.22085V5.3801L31.7924 5.53934L31.7397 5.75169L31.6867 5.98171L31.5805 6.30021L31.5456 6.44178L31.5102 6.60103L31.4571 6.77797L31.404 6.99031L31.2271 7.52114L31.1917 7.6804L31.1213 7.91042L30.997 8.28201L30.9621 8.44127L30.9267 8.58282L30.8913 8.74207L30.7675 9.04288L30.7321 9.20213L30.6082 9.64449L30.5016 9.96299L30.4662 10.1222L30.4136 10.3523L30.3605 10.6354L30.3251 10.9362L30.3605 11.2016L30.5021 11.3963L30.6967 11.4493L30.8559 11.4316L31.0152 11.3609L31.1395 11.2724L31.2811 11.1662L31.865 10.5823L31.9712 10.4584L32.0596 10.3346L32.1658 10.193L32.3428 9.90991L32.4489 9.78605L32.5192 9.67989L32.6077 9.53832L32.7139 9.37907L32.7846 9.21983L32.9262 8.91902L33.1385 8.49434L33.227 8.35279L33.3863 8.26432L33.6163 8.2997L33.7606 8.47618ZM30.9123 3.04442L31.0003 2.90286L31.1423 2.779L31.2839 2.69052L31.4608 2.63743L31.6201 2.60205H31.797L31.9563 2.63743L32.0983 2.72591L32.2221 2.83207L32.346 2.95595L32.4345 3.0975L32.4876 3.25675L32.5048 3.41599V3.59294L32.4522 3.7522L32.3637 3.89375L32.258 4.03531L32.1337 4.14148L31.9921 4.24765L31.8329 4.31843L31.6559 4.35381L31.4967 4.33612L31.3197 4.30074L31.0366 4.12379L30.9304 3.99992L30.842 3.85837L30.8066 3.69911L30.7894 3.53987L30.8066 3.38061L30.842 3.20366L30.9123 3.04442Z" fill="#343A40"/>
<path d="M37.0336 6.03466L36.892 6.10543L36.7677 6.17621L36.6438 6.26468L36.5023 6.37085L36.3779 6.47702L36.0953 6.67166L35.971 6.76013L35.8471 6.8663L35.7232 6.99017L35.5109 7.23788L35.387 7.36174L35.1747 7.60947L34.9977 7.89259L34.8911 8.03414L34.6788 8.45881L34.4841 9.04273L34.4315 9.27276L34.3607 9.53818L34.29 9.7682L34.1842 10.246L34.1135 10.476L34.0432 10.7414L33.9901 10.9714L33.937 11.1307L33.8844 11.3607L33.849 11.5554L33.7959 11.7323L33.7782 11.8916L33.7428 12.0331L33.6902 12.1747L33.5836 12.2631L33.4243 12.3162L33.2651 12.3339L33.0351 12.3516L32.7696 12.3339L32.54 12.2985L32.398 12.2278L32.2919 12.0685L32.2742 11.8739L32.3096 11.6969L32.3626 11.4669L32.4153 11.2546L32.4507 11.0953L32.5037 10.9361L32.5391 10.7768L32.5917 10.6352L32.6448 10.476L32.6802 10.3167L32.7156 10.1752L32.751 10.0159L32.8036 9.85668L32.8567 9.71513L32.9275 9.39663L32.9624 9.25507L32.9801 9.09581L33.0332 8.93657L33.0686 8.77731L33.1217 8.61806L33.1743 8.40572L33.2451 8.1757L33.333 7.8572L33.3685 7.71564L33.4038 7.55638L33.4569 7.39714L33.4923 7.23788L33.5449 7.09633L33.5803 6.93708L33.6334 6.77782L33.6865 6.5478L33.7391 6.33547L33.7745 6.17621L33.8811 5.85771L33.916 5.71615L33.9691 5.55691L34.0399 5.23839L34.1638 5.06146L34.3938 4.93759L34.6764 4.9022L34.9596 4.93759L35.2245 5.02606L35.4015 5.20301L35.4368 5.41534L35.4015 5.59229L35.3665 5.71615L35.3135 5.8754L35.2781 6.03466L35.225 6.17621L35.1901 6.33547L35.137 6.49471L35.1016 6.65396L35.0839 6.76013L35.1016 6.77782L35.1724 6.68935L35.2781 6.56549L35.367 6.44163L35.5789 6.1939L35.7032 6.08774L35.9332 5.8931L36.0571 5.78693L36.2871 5.55691L36.641 5.27379L36.7826 5.18532L36.9241 5.11453L37.0661 5.02606L37.2077 4.97299L37.367 4.91989L37.597 4.8668L37.8093 4.83142H38.2163L38.4989 4.8668L38.6936 4.9022L38.8528 4.97299L39.0121 5.06146L39.1364 5.18532L39.2249 5.30918L39.3134 5.45074L39.3837 5.59229L39.4368 5.75155L39.4898 5.96388L39.5252 6.17621V6.51241L39.5075 6.67166V6.83091L39.4898 6.97246L39.4544 7.13172L39.4191 7.30867L39.3837 7.41483L39.3311 7.59178L39.278 7.8218L39.2072 8.08723L39.1369 8.31725L39.0838 8.47651L39.0307 8.70653L38.9604 9.00735L38.8896 9.29045L38.8188 9.53818L38.7839 9.69744L38.7485 9.82129L38.7131 9.98055L38.66 10.1398L38.6247 10.2814L38.5185 10.7586L38.5008 10.9179V11.2364L38.5716 11.3779L38.6955 11.4664L38.8547 11.4841L39.0139 11.431L39.1732 11.3603L39.3152 11.2718L39.4391 11.1833L39.5807 11.0771L39.8107 10.8471L39.8991 10.7233L40.0053 10.5817L40.0938 10.4578L40.2176 10.3163L40.3056 10.1924L40.4123 10.0332L40.5715 9.76775L40.6782 9.60849L40.7308 9.52002L40.8374 9.36076L40.9254 9.20152L41.067 8.91841L41.1378 8.75915L41.1908 8.6176L41.2435 8.45834L41.3319 8.31679L41.4912 8.21061L41.7212 8.2637L41.8628 8.44065V8.6176L41.8102 8.77684L41.7394 8.91841L41.6686 9.07766L41.5983 9.21921L41.5098 9.36076L41.439 9.50233L41.3329 9.66158L41.2798 9.76775L41.1028 10.0862L41.0675 10.1924L40.979 10.3517L40.802 10.6348L40.6954 10.794L40.6251 10.8825L40.5189 11.0241L40.3951 11.1833L40.2894 11.3072L40.0947 11.5195L39.9885 11.6434L39.7408 11.8557L39.6351 11.9619L39.4936 12.068L39.352 12.1565L39.0689 12.2981L38.9273 12.3512L38.7681 12.4042L38.6084 12.4396L38.4668 12.4573L38.2899 12.475H38.1306L37.9714 12.4573L37.8298 12.4219L37.6701 12.3689L37.5285 12.3158L37.387 12.2273L37.2808 12.1388L37.1746 12.015L37.1039 11.8557L37.0513 11.7141L37.0158 11.5549L36.9805 11.4133V11.0241L37.0158 10.794L37.0336 10.6171L37.0866 10.3871L37.2459 9.8036L37.2985 9.5028L37.3693 9.20199L37.4401 8.91888L37.5104 8.68884L37.5635 8.5296L37.6342 8.29956L37.7045 8.01644L37.7576 7.73333L37.8284 7.50331L37.8987 7.18481L37.9164 7.02555L37.9872 6.68935L38.0049 6.53011L37.9695 6.35316L37.8629 6.17621L37.7036 6.01695L37.5444 5.96388L37.3851 5.94619L37.2259 5.96388L37.0336 6.03466Z" fill="#343A40"/>
<path d="M46.9424 8.0516L46.854 8.17546L46.6416 8.42319L46.3944 8.63552L46.2701 8.72399L46.1108 8.81247L46.0046 8.84785L45.8277 8.95402L45.721 9.00711L45.5618 9.07789L45.3849 9.13096L45.2256 9.18405L45.0663 9.20175L44.8894 9.23713L44.6948 9.25482L44.4824 9.29022L44.3232 9.30791H44.1634L43.845 9.27253L43.5264 9.25482L43.3672 9.23713L42.8895 9.13096H42.7656L42.6771 9.20175L42.6417 9.3256V9.48486L42.6245 9.66181V9.96261L42.6417 10.1396L42.6771 10.2811L42.7833 10.5996L42.9602 10.8827L43.0664 11.0066L43.1726 11.1128L43.4552 11.2897L43.6321 11.3428L43.7914 11.3959L43.9157 11.4136L44.075 11.449L44.2342 11.4666H44.4112L44.5704 11.449L45.0305 11.3605L45.1897 11.3251L45.349 11.272L45.4906 11.2189L45.7918 11.0951L46.0745 10.9535L46.3222 10.7589L46.4461 10.6704L46.5704 10.5642L46.8176 10.3342L47.03 10.0865L47.1184 9.96261L47.2246 9.82105L47.4016 9.57333L47.49 9.43177L47.5604 9.29022L47.6488 9.14866L47.7196 9.00711L47.8076 8.88323L47.8784 8.74168L47.9487 8.58243L48.0195 8.44088L48.1084 8.29931L48.2323 8.21084H48.3915L48.5508 8.31702L48.6392 8.47626L48.6216 8.63552L48.5508 8.79477L48.4628 8.98941L48.3561 9.18405L48.2677 9.37869L48.161 9.57333L48.0553 9.75028L47.8784 10.0334L47.8253 10.1396L47.7191 10.2988L47.5422 10.5465L47.436 10.6704L47.3299 10.7766L47.2237 10.9004L47.0998 11.042L47.0467 11.1128L46.9229 11.2543L46.8162 11.3782L46.569 11.5905L46.392 11.7321L46.2323 11.8736L45.9497 12.0506L45.5073 12.2452L45.3658 12.2983L45.2065 12.3514L44.9765 12.3868L44.7641 12.4398L44.3925 12.4752L44.1625 12.4929L43.9679 12.5106H43.8086L43.1721 12.4398L43.0301 12.4045L42.8708 12.3514L42.7116 12.2806L42.57 12.2098L42.2869 12.0506L42.1453 11.9798L42.0215 11.8736L41.8972 11.7498L41.8269 11.6613L41.7025 11.5197L41.5963 11.3959L41.5079 11.2543L41.4376 11.1305L41.3668 10.9712L41.3142 10.8296L41.2611 10.6704L41.2257 10.5111L41.1903 10.3696L41.1549 10.2103L41.1023 9.73258V9.39639L41.12 9.23713V9.07789L41.2262 8.60013L41.2792 8.45857L41.3146 8.29931L41.3673 8.14007L41.4026 7.98082L41.4557 7.82156L41.526 7.62692L41.6145 7.41459L41.7025 7.25535L41.8091 7.06071L41.933 6.88376L42.0038 6.7245L42.0918 6.60064L42.198 6.47677L42.4629 6.19367L42.7283 5.92825L42.8699 5.80438L43.0291 5.68052L43.2065 5.55666L43.3658 5.4328L43.5428 5.32664L43.7197 5.23816L43.879 5.16738L44.109 5.06121L44.4806 4.93734L44.7991 4.86657L45.0291 4.83118H45.4184L45.6484 4.86657L45.931 4.91965L46.1611 4.97274L46.3203 5.02582L46.4796 5.0966L46.6211 5.16738L46.7273 5.23816L46.975 5.45049L47.0812 5.57435L47.1869 5.7513L47.2754 5.96363L47.3285 6.12289L47.3634 6.28213L47.3811 6.44139V6.65372L47.3634 6.88376L47.3462 7.06071L47.2931 7.27304L47.2223 7.48537L47.152 7.66232L47.0989 7.75079L47.0104 7.91003L46.9424 8.0516ZM44.7842 5.92872L44.5364 6.03488L44.3246 6.14105L44.1825 6.22952L43.9353 6.44186L43.7756 6.60111L43.634 6.76035L43.5102 6.90192L43.3863 7.09656L43.262 7.27351L43.1739 7.43275L43.0678 7.62739L42.9975 7.83972L42.9267 7.99898L42.8736 8.14054L42.8559 8.2644L42.9444 8.35287L43.1744 8.40595L43.5283 8.42364L43.7053 8.44135H44.2003L44.3772 8.40595L44.5364 8.37056L44.7138 8.29978L44.82 8.2644L44.997 8.17592L45.1208 8.08745L45.2451 7.98128L45.369 7.85743L45.4929 7.75125L45.5995 7.6097L45.688 7.48584L45.7588 7.34427L45.8472 7.18503L45.9534 6.86652L45.9888 6.68957L46.0065 6.53033L45.9888 6.35338L45.918 6.19413L45.8123 6.07027L45.6703 5.9641L45.511 5.89332L45.3518 5.85794L45.1925 5.84024L45.0156 5.87563L44.7842 5.92872Z" fill="#343A40"/>
<path d="M56.4445 8.91839L56.3737 9.07764L56.3029 9.21919L56.215 9.36074L56.1442 9.50231L56.0562 9.66156L55.9677 9.80311L55.8797 9.92697L55.455 10.4224L55.3307 10.5463L55.2068 10.6525L55.0829 10.7409L54.9414 10.8471L54.8171 10.9356L54.6578 11.0064L54.5163 11.0771L54.357 11.1302L54.2327 11.1656L54.0734 11.201L53.8611 11.2364L53.6842 11.2541L53.5603 11.2718H53.3834L53.2241 11.2541H53.0821L52.9759 11.3072L52.8874 11.4133L52.7994 11.5372L52.6756 11.661L52.5158 11.8026L52.3389 11.9442L52.1796 12.0503L51.985 12.1565L51.8081 12.2627L51.6488 12.3334L51.4188 12.3865L51.1361 12.4396L50.8353 12.4573L50.6053 12.475H50.4284L50.2514 12.4573L50.0922 12.4042L49.9683 12.3511L49.809 12.2804L49.6498 12.1919L49.3844 11.9972L49.2605 11.8911L49.1362 11.7672L48.8712 11.3425L48.8181 11.1833L48.7124 10.7055L48.6947 10.5286V10.2101L48.7297 10.0331L48.8359 9.8385L49.0482 9.66156L49.3131 9.59078L49.5255 9.60847L49.6321 9.71464L49.6498 9.8562V10.0154L49.6321 10.1747L49.6498 10.334L49.7201 10.6525L49.7909 10.794L49.8789 10.9356L49.9674 11.0594L50.0735 11.1833L50.1979 11.2718L50.3394 11.3425L50.481 11.3956L50.6402 11.431H50.8172L50.9592 11.4133L51.1184 11.3602L51.2423 11.2895L51.3839 11.1833L51.5082 11.0771L51.5967 10.9002V10.7232L51.5082 10.5994L51.402 10.4578L51.3317 10.3162L51.314 10.1393L51.3317 9.98006L51.4202 9.8208L51.5268 9.71464L51.7918 9.53769L51.8626 9.44922V9.32536L51.8271 9.1661L51.7741 9.00686L51.7214 8.8653L51.6684 8.70605L51.633 8.56449L51.5799 8.40525L51.5273 8.26368L51.4742 8.10443L51.4211 7.96288L51.3508 7.82131L51.2977 7.67976L51.2446 7.52051L51.1915 7.37896L51.1389 7.2197L51.0858 7.07815L51.0328 6.9189L50.9801 6.77735L50.9271 6.6004L50.8563 6.38807L50.8032 6.17572L50.7506 6.01648L50.7152 5.85722L50.6975 5.71567L50.6798 5.55641L50.6444 5.45025L50.5387 5.48563L50.291 5.73336L50.1848 5.85722L50.0079 6.10495L49.9194 6.2465L49.8314 6.37036L49.6368 6.72426L49.5301 6.9189L49.4561 7.07815L49.3676 7.20201L49.2968 7.34356L49.2265 7.46743L49.1557 7.60898L49.0496 7.83902L48.9429 8.03366L48.8726 8.1929L48.7134 8.47602L48.6426 8.61758L48.5718 8.77682L48.4656 8.97146L48.3241 9.13072L48.1644 9.1661L47.9874 9.07764L47.8994 8.93608L47.9171 8.77682L47.9525 8.61758L48.0941 8.33447L48.1825 8.17521L48.2356 8.06904L48.3241 7.90979L48.3944 7.75055L48.4475 7.60898L48.6598 7.18432L48.7483 7.04275L48.8191 6.88351L48.9252 6.68887L49.0496 6.49423L49.1376 6.33498L49.226 6.19343L49.2964 6.05186L49.3848 5.8926L49.4556 5.80413L49.5441 5.64489L49.6326 5.52103L50.0568 5.02557L50.2691 4.79555L50.3757 4.67169L50.4996 4.54782L50.6235 4.44165L50.9066 4.2647L51.0658 4.19393L51.2428 4.14084L51.402 4.10546L51.544 4.08777L51.7033 4.10546L51.8626 4.14084L52.0041 4.22932L52.1103 4.35318L52.1629 4.49474V4.654L52.1275 4.81324L52.0572 4.9548L51.9683 5.09635L51.9328 5.23792L51.9156 5.39716L51.9505 5.60949L52.0036 5.82184L52.039 5.99877L52.127 6.22881L52.2155 6.51192L52.3217 6.79457L52.5163 7.29001L52.5871 7.44927L52.6579 7.6616L52.7636 7.85624L52.8343 8.0155L52.887 8.15705L52.94 8.3163L53.0993 8.74097L53.1524 8.90022L53.1878 9.13025L53.2232 9.41336L53.2581 9.6434L53.2758 9.82033V10.2627L53.2935 10.4043L53.3465 10.4927L53.4881 10.5281H53.6474L53.9663 10.4927L54.2848 10.3866L54.4264 10.3335L54.7095 10.1565L54.8334 10.0504L55.0811 9.82033L55.3111 9.59031L55.3991 9.46645L55.753 8.90022L55.8238 8.75866L55.8941 8.59942L55.9472 8.45785L56.0357 8.3163L56.1949 8.21014L56.4072 8.26321L56.5665 8.44016V8.61711L56.5134 8.77637L56.4445 8.91839Z" fill="#343A40"/>
<path d="M64.371 8.91839L64.3002 9.07764L64.2294 9.21919L64.1414 9.36074L64.0706 9.50231L63.9826 9.66156L63.8941 9.80311L63.8057 9.92697L63.381 10.4224L63.2567 10.5463L63.1328 10.6525L63.009 10.7409L62.8674 10.8471L62.743 10.9356L62.5838 11.0064L62.4422 11.0771L62.283 11.1302L62.1587 11.1656L61.9994 11.201L61.7871 11.2364L61.6101 11.2541L61.4863 11.2718H61.3093L61.1501 11.2541H61.0081L60.9023 11.3072L60.8139 11.4133L60.7254 11.5372L60.6015 11.661L60.4418 11.8026L60.2649 11.9442L60.1056 12.0503L59.911 12.1565L59.734 12.2627L59.5748 12.3334L59.3448 12.3865L59.0621 12.4396L58.7608 12.4573L58.5308 12.475H58.3539L58.1769 12.4573L58.0177 12.4042L57.8938 12.3511L57.7346 12.2804L57.5753 12.1919L57.3099 11.9972L57.186 11.8911L57.0617 11.7672L56.7968 11.3425L56.7437 11.1833L56.6375 10.7055L56.6198 10.5286V10.2101L56.6547 10.0331L56.7614 9.8385L56.9737 9.66156L57.2386 9.59078L57.451 9.60847L57.5572 9.71464L57.5748 9.8562V10.0154L57.5572 10.1747L57.5748 10.334L57.6451 10.6525L57.7159 10.794L57.8044 10.9356L57.8929 11.0594L57.9986 11.1833L58.1229 11.2718L58.2645 11.3425L58.406 11.3956L58.5653 11.431H58.7422L58.8842 11.4133L59.0435 11.3602L59.1674 11.2895L59.3089 11.1833L59.4332 11.0771L59.5213 10.9002V10.7232L59.4332 10.5994L59.3266 10.4578L59.2563 10.3162L59.2386 10.1393L59.2563 9.98006L59.3443 9.8208L59.4509 9.71464L59.7159 9.53769L59.7867 9.44922V9.32536L59.7513 9.1661L59.7001 9.00686L59.6475 8.8653L59.5944 8.70605L59.559 8.56449L59.5059 8.40525L59.4533 8.26368L59.4002 8.10443L59.3471 7.96288L59.2768 7.82131L59.2237 7.67976L59.1706 7.52051L59.1175 7.37896L59.0649 7.2197L59.0118 7.07815L58.9588 6.9189L58.9061 6.77735L58.8531 6.6004L58.7823 6.38807L58.7292 6.17572L58.6766 6.01648L58.6412 5.85722L58.6235 5.71567L58.6058 5.55641L58.5704 5.45025L58.4642 5.48563L58.2165 5.73336L58.1108 5.85722L57.9338 6.10495L57.8454 6.2465L57.7574 6.37036L57.5627 6.72426L57.4566 6.9189L57.3863 7.07815L57.2978 7.20201L57.227 7.34356L57.1567 7.46743L57.0859 7.60898L56.9798 7.83902L56.8731 8.03366L56.8028 8.1929L56.6435 8.47602L56.5728 8.61758L56.502 8.77682L56.3963 8.97146L56.2547 9.13072L56.095 9.1661L55.9181 9.07764L55.8301 8.93608L55.8478 8.77682L55.8831 8.61758L56.0247 8.33447L56.1127 8.17521L56.1658 8.06904L56.2543 7.90979L56.3246 7.75055L56.3777 7.60898L56.59 7.18432L56.678 7.04275L56.7488 6.88351L56.855 6.68887L56.9793 6.49423L57.0673 6.33498L57.1558 6.19343L57.2261 6.05186L57.3146 5.8926L57.3853 5.80413L57.4738 5.64489L57.5623 5.52103L57.9865 5.02557L58.1988 4.79555L58.3054 4.67169L58.4293 4.54782L58.5532 4.44165L58.8363 4.2647L58.9955 4.19393L59.1725 4.14084L59.3317 4.10546L59.4737 4.08777L59.633 4.10546L59.7923 4.14084L59.9338 4.22932L60.0405 4.35318L60.0931 4.49474V4.654L60.0577 4.81324L59.9874 4.9548L59.8989 5.09635L59.8635 5.23792L59.8463 5.39716L59.8812 5.60949L59.9343 5.82184L59.9697 5.99877L60.0577 6.22881L60.1462 6.51192L60.2518 6.79457L60.4465 7.29001L60.5173 7.44927L60.588 7.6616L60.6937 7.85624L60.7645 8.0155L60.8171 8.15705L60.8702 8.3163L61.0295 8.74097L61.0826 8.90022L61.1179 9.13025L61.1533 9.41336L61.1883 9.6434L61.206 9.82033V10.2627L61.2236 10.4043L61.2767 10.4927L61.4183 10.5281H61.5775L61.8965 10.4927L62.215 10.3866L62.3566 10.3335L62.6397 10.1565L62.7635 10.0504L63.0113 9.82033L63.2413 9.59031L63.3293 9.46645L63.6832 8.90022L63.754 8.75866L63.8243 8.59942L63.8774 8.45785L63.9659 8.3163L64.1251 8.21014L64.3374 8.26321L64.4967 8.44016V8.61711L64.4436 8.77637L64.371 8.91839Z" fill="#343A40"/>
<path d="M18.9236 17.1153V15.1605H19.2533V17.1153H18.9236Z" fill="#343A40"/>
<path d="M22.5352 17.1153L21.494 15.7137V17.1153H21.1643V15.1605H21.4879L22.5352 16.5654V15.1605H22.8588V17.1153H22.5352Z" fill="#343A40"/>
<path d="M25.4882 15.4567V17.1153H25.1585V15.4567H24.5415V15.1605H26.1079V15.4567H25.4882Z" fill="#343A40"/>
<path d="M28.118 15.4567V15.9842H29.073V16.2804H28.118V16.8192H29.2179V17.1153H27.7883V15.1605H29.1843V15.4567H28.118Z" fill="#343A40"/>
<path d="M31.8998 16.5235C31.8718 16.5263 31.8411 16.5263 31.8108 16.5263H31.3475V17.1153H31.0178V15.1605H31.8108C32.3105 15.1605 32.5982 15.4036 32.5982 15.8278C32.5982 16.1407 32.4525 16.3614 32.1931 16.4615L32.6313 17.1148H32.2569L31.8998 16.5235ZM31.8104 16.2301C32.1121 16.2301 32.2853 16.1016 32.2853 15.8362C32.2853 15.5791 32.1121 15.4567 31.8104 15.4567H31.347V16.2301H31.8104Z" fill="#343A40"/>
<path d="M34.4338 17.1153V15.1605H34.7635V17.1153H34.4338Z" fill="#343A40"/>
<path d="M38.5843 16.1386C38.5843 16.6969 38.1317 17.1295 37.5483 17.1295C36.9648 17.1295 36.5122 16.6969 36.5122 16.1386C36.5122 15.577 36.9648 15.1528 37.5483 15.1528C38.1322 15.1524 38.5843 15.5798 38.5843 16.1386ZM36.8479 16.1386C36.8479 16.5265 37.1688 16.8338 37.5515 16.8338C37.9343 16.8338 38.2467 16.5265 38.2467 16.1386C38.2467 15.7503 37.9338 15.4485 37.5515 15.4485C37.166 15.4485 36.8479 15.7503 36.8479 16.1386Z" fill="#343A40"/>
<path d="M41.2172 16.5235C41.1892 16.5263 41.1585 16.5263 41.1282 16.5263H40.6649V17.1153H40.3352V15.1605H41.1282C41.6278 15.1605 41.9156 15.4036 41.9156 15.8278C41.9156 16.1407 41.7699 16.3614 41.5105 16.4615L41.9491 17.1148H41.5748L41.2172 16.5235ZM41.1277 16.2301C41.429 16.2301 41.6027 16.1016 41.6027 15.8362C41.6027 15.5791 41.4295 15.4567 41.1277 15.4567H40.6644V16.2301H41.1277Z" fill="#343A40"/>
<path d="M46.6713 15.1605C47.258 15.1605 47.6822 15.5708 47.6822 16.1379C47.6822 16.7018 47.2552 17.1153 46.6634 17.1153H45.8704V15.1605H46.6713ZM46.1996 16.8196H46.6797C47.0592 16.8196 47.3497 16.5379 47.3497 16.1412C47.3497 15.7421 47.0508 15.4571 46.6657 15.4571H46.1996V16.8196Z" fill="#343A40"/>
<path d="M49.7616 15.4567V15.9842H50.7166V16.2804H49.7616V16.8192H50.8614V17.1153H49.4319V15.1605H50.8279V15.4567H49.7616Z" fill="#343A40"/>
<path d="M53.9881 15.3479L53.8512 15.6385C53.6389 15.51 53.4265 15.4569 53.2789 15.4569C53.0861 15.4569 52.9604 15.5295 52.9604 15.6608C52.9604 16.0883 54.016 15.8592 54.0132 16.5628C54.0132 16.9115 53.7064 17.1267 53.2761 17.1267C52.9688 17.1267 52.6787 17.001 52.4775 16.817L52.62 16.5321C52.8212 16.7164 53.0726 16.817 53.2817 16.817C53.5108 16.817 53.6477 16.7304 53.6477 16.5795C53.6477 16.1442 52.5916 16.3872 52.5916 15.6915C52.5916 15.3563 52.8794 15.1472 53.3036 15.1472C53.5583 15.1472 53.807 15.2282 53.9881 15.3479Z" fill="#343A40"/>
<path d="M55.7964 17.1153V15.1605H56.1261V17.1153H55.7964Z" fill="#343A40"/>
<path d="M59.6619 16.1546V16.875C59.4635 17.0259 59.1702 17.1288 58.9025 17.1288C58.3241 17.1288 57.8748 16.6962 57.8748 16.1379C57.8748 15.5791 58.3297 15.1521 58.922 15.1521C59.2014 15.1521 59.4803 15.2583 59.6726 15.4259L59.4859 15.669C59.335 15.5293 59.126 15.4459 58.922 15.4459C58.5225 15.4459 58.21 15.75 58.21 16.1383C58.21 16.529 58.5257 16.8335 58.9248 16.8335C59.0701 16.8335 59.2345 16.7833 59.3742 16.6994V16.1551L59.6619 16.1546Z" fill="#343A40"/>
<path d="M62.8977 17.1153L61.8565 15.7137V17.1153H61.5269V15.1605H61.8505L62.8977 16.5654V15.1605H63.2213V17.1153H62.8977Z" fill="#343A40"/>
</svg>
