<svg width="75" height="12" viewBox="0 0 75 12" fill="none" xmlns="http://www.w3.org/2000/svg">
<path d="M12.5968 10.5774H1.56519V10.8926H12.5968V10.5774Z" fill="#343A40"/>
<path d="M70.9086 10.5774H59.877V10.8926H70.9086V10.5774Z" fill="#343A40"/>
<path d="M2.1105 5.3182L0 0.0227051H0.960698L2.59495 4.32724L4.24402 0.0227051H5.17446L3.0337 5.3182H2.1105Z" fill="#343A40"/>
<path d="M6.27051 5.3182V0.0227051H7.16312V5.3182H6.27051Z" fill="#343A40"/>
<path d="M12.6476 5.3182L9.82572 1.52048V5.3182H8.93311V0.0227051H9.8106L12.6476 3.82798V0.0227051H13.5251V5.3182H12.6476Z" fill="#343A40"/>
<path d="M17.2398 0.824549V5.3182H16.3471V0.824549H14.675V0.0227051H18.9194V0.824549H17.2398Z" fill="#343A40"/>
<path d="M20.288 4.123L19.7815 5.3182H18.8511L21.1885 0.0227051H22.1038L24.4189 5.3182H23.4658L22.9593 4.123H20.288ZM21.6197 0.975838L20.6212 3.32873H22.6182L21.6197 0.975838Z" fill="#343A40"/>
<path d="M29.7662 2.71599V4.66795C29.2291 5.07644 28.4345 5.35633 27.7083 5.35633C26.1425 5.35633 24.9246 4.18382 24.9246 2.6706C24.9246 1.15769 26.1576 0 27.7613 0C28.5177 0 29.2745 0.287454 29.7964 0.741327L29.2896 1.39944C28.8811 1.02121 28.3138 0.794278 27.7613 0.794278C26.6795 0.794278 25.8323 1.61881 25.8323 2.67028C25.8323 3.72932 26.6871 4.55417 27.7691 4.55417C28.1625 4.55417 28.6088 4.41801 28.987 4.19107V2.71567H29.7662V2.71599Z" fill="#343A40"/>
<path d="M32.3001 0.824549V2.25456H34.8875V3.0564H32.3001V4.51636H35.2808V5.3182H31.4075V0.0227051H35.1901V0.824549H32.3001Z" fill="#343A40"/>
<path d="M43.8505 5.3182L43.843 1.36163L42.1712 4.76599H41.5884L39.9163 1.36163V5.3182H39.0767V0.0227051H40.1357L41.8834 3.54053L43.6236 0.0227051H44.6751V5.3182H43.8505Z" fill="#343A40"/>
<path d="M46.4524 5.3182V0.0227051H47.345V5.3182H46.4524Z" fill="#343A40"/>
<path d="M52.8295 5.3182L50.0076 1.52048V5.3182H49.115V0.0227051H49.9925L52.8295 3.82798V0.0227051H53.707V5.3182H52.8295Z" fill="#343A40"/>
<path d="M55.4846 5.3182V0.0227051H56.3772V5.3182H55.4846Z" fill="#343A40"/>
<path d="M62.9211 5.3182L62.9135 1.36163L61.2417 4.76599H60.659L58.9869 1.36163V5.3182H58.1472V0.0227051H59.2063L60.954 3.54053L62.6941 0.0227051H63.7456V5.3182H62.9211Z" fill="#343A40"/>
<path d="M66.2712 4.123L65.7647 5.3182H64.8342L67.1717 0.0227051H68.087L70.402 5.3182H69.4489L68.9424 4.123H66.2712ZM67.6029 0.975838L66.6043 3.32873H68.6014L67.6029 0.975838Z" fill="#343A40"/>
<path d="M74.6696 4.50879V5.3182H71.4846V0.0227051H72.3772V4.50879H74.6696Z" fill="#343A40"/>
<path d="M16.2441 11.6607V9.89661H16.5414V11.6607H16.2441Z" fill="#343A40"/>
<path d="M19.5038 11.6607L18.5636 10.3956V11.6607H18.2664V9.89661H18.5588L19.5038 11.1643V9.89661H19.7963V11.6607H19.5038Z" fill="#343A40"/>
<path d="M22.1698 10.1639V11.661H21.8726V10.1639H21.3157V9.89661H22.7293V10.1639H22.1698Z" fill="#343A40"/>
<path d="M24.5424 10.1636V10.6398H25.4045V10.9071H24.5424V11.3934H25.5353V11.6607H24.2449V9.89661H25.505V10.1639H24.5424V10.1636Z" fill="#343A40"/>
<path d="M27.9558 11.1265C27.9309 11.129 27.9032 11.129 27.8751 11.129H27.4569V11.6607H27.1597V9.89661H27.8751C28.3265 9.89661 28.5859 10.116 28.5859 10.4989C28.5859 10.7813 28.4551 10.9802 28.2206 11.071L28.6165 11.6607H28.2786L27.9558 11.1265ZM27.8755 10.8617C28.1478 10.8617 28.3038 10.7457 28.3038 10.5062C28.3038 10.2745 28.1478 10.1636 27.8755 10.1636H27.4572V10.8617H27.8755Z" fill="#343A40"/>
<path d="M30.2432 11.6607V9.89661H30.5404V11.6607H30.2432Z" fill="#343A40"/>
<path d="M33.9894 10.7793C33.9894 11.2833 33.5812 11.6738 33.0545 11.6738C32.5279 11.6738 32.1194 11.2833 32.1194 10.7793C32.1194 10.2728 32.5279 9.88953 33.0545 9.88953C33.5812 9.88953 33.9894 10.2753 33.9894 10.7793ZM32.422 10.7793C32.422 11.1295 32.7116 11.4068 33.0571 11.4068C33.4025 11.4068 33.6846 11.1298 33.6846 10.7793C33.6846 10.4288 33.4022 10.1568 33.0571 10.1568C32.7091 10.1568 32.422 10.4291 32.422 10.7793Z" fill="#343A40"/>
<path d="M36.3645 11.1265C36.3396 11.129 36.3119 11.129 36.2838 11.129H35.8656V11.6607H35.5684V9.89661H36.2842C36.7355 9.89661 36.9949 10.116 36.9949 10.4989C36.9949 10.7813 36.8641 10.9802 36.6296 11.071L37.0255 11.6607H36.6876L36.3645 11.1265ZM36.2838 10.8617C36.5562 10.8617 36.7122 10.7457 36.7122 10.5062C36.7122 10.2745 36.5562 10.1636 36.2838 10.1636H35.8656V10.8617H36.2838Z" fill="#343A40"/>
<path d="M41.2868 9.89661C41.816 9.89661 42.1993 10.2673 42.1993 10.7788C42.1993 11.2879 41.8135 11.6607 41.2793 11.6607H40.5635V9.89661H41.2868ZM40.861 11.3938H41.2947C41.6373 11.3938 41.8995 11.1391 41.8995 10.7813C41.8995 10.4208 41.6301 10.1639 41.2821 10.1639H40.861V11.3938Z" fill="#343A40"/>
<path d="M44.0763 10.1636V10.6398H44.9381V10.9071H44.0763V11.3934H45.0692V11.6607H43.7788V9.89661H45.0389V10.1639H44.0763V10.1636Z" fill="#343A40"/>
<path d="M47.891 10.0655L47.7675 10.3274C47.5762 10.2114 47.3845 10.1635 47.2509 10.1635C47.0769 10.1635 46.9634 10.229 46.9634 10.3476C46.9634 10.733 47.9159 10.5263 47.9137 11.1614C47.9137 11.4762 47.6364 11.6704 47.2487 11.6704C46.9713 11.6704 46.7091 11.5572 46.5278 11.3908L46.6561 11.1339C46.8377 11.3001 47.0646 11.3908 47.2537 11.3908C47.4602 11.3908 47.5837 11.3127 47.5837 11.1765C47.5837 10.7831 46.6312 11.0025 46.6312 10.3753C46.6312 10.0727 46.8906 9.88391 47.2736 9.88391C47.503 9.88423 47.7274 9.95735 47.891 10.0655Z" fill="#343A40"/>
<path d="M49.5222 11.6607V9.89661H49.8194V11.6607H49.5222Z" fill="#343A40"/>
<path d="M53.0125 10.7941V11.4444C52.8338 11.5805 52.569 11.6738 52.327 11.6738C51.8056 11.6738 51.3997 11.2833 51.3997 10.7793C51.3997 10.2753 51.8107 9.88953 52.3449 9.88953C52.5968 9.88953 52.8489 9.98534 53.0226 10.1366L52.8539 10.356C52.7175 10.2299 52.5287 10.1543 52.3449 10.1543C51.9847 10.1543 51.7022 10.4291 51.7022 10.7793C51.7022 11.132 51.9869 11.4068 52.3474 11.4068C52.4786 11.4068 52.6273 11.3615 52.7531 11.2858V10.7944L53.0125 10.7941Z" fill="#343A40"/>
<path d="M55.9315 11.6607L54.9916 10.3956V11.6607H54.6943V9.89661H54.9868L55.9318 11.1643V9.89661H56.2243V11.6607H55.9315Z" fill="#343A40"/>
</svg>
