<svg width="28" height="28" viewBox="0 0 28 28" fill="none" xmlns="http://www.w3.org/2000/svg">
<path d="M2.60006 17.8906V0.350796H25.4018V17.8906H25.7526V0.350796V0H25.4018H2.60006H2.24927V0.350796V17.8906H2.60006Z" fill="#343A40"/>
<path d="M23.6478 26.6593H4.35404H2.60006H2.24927V27.0101H2.60006H25.4018H25.7526V26.6593H25.4018H23.6478Z" fill="#343A40"/>
<path d="M2.21405 24.0003L2.21054 22.1653L1.43511 23.7442H1.16482L0.389383 22.1653V24.0003H0V21.5442H0.491117L1.30163 23.1757L2.10863 21.5442H2.59624V24.0003H2.21405Z" fill="#343A40"/>
<path d="M3.94409 24.0003V21.5442H4.35803V24.0003H3.94409Z" fill="#343A40"/>
<path d="M7.43132 24.0003L6.12268 22.2389V24.0003H5.70874V21.5442H6.11566L7.43132 23.3092V21.5442H7.83842V24.0003H7.43132Z" fill="#343A40"/>
<path d="M9.18774 24.0003V21.5442H9.60168V24.0003H9.18774Z" fill="#343A40"/>
<path d="M13.1613 24.0003L13.1578 22.1653L12.3824 23.7442H12.1121L11.3366 22.1653V24.0003H10.9473V21.5442H11.4384L12.2489 23.1757L13.0561 21.5442H13.5437V24.0003H13.1613Z" fill="#343A40"/>
<path d="M15.2447 23.4458L15.0095 24.0003H14.5779L15.6622 21.5442H16.0868L17.1604 24.0003H16.7183L16.4831 23.4458H15.2447ZM15.8623 21.9864L15.3991 23.0777H16.3254L15.8623 21.9864Z" fill="#343A40"/>
<path d="M19.6601 23.6248V24.0003H18.1831V21.5442H18.597V23.6248H19.6601Z" fill="#343A40"/>
<path d="M20.762 24.0003V21.5442H21.1759V24.0003H20.762Z" fill="#343A40"/>
<path d="M24.1872 21.7815L24.0153 22.1465C23.7486 21.9849 23.4819 21.9183 23.296 21.9183C23.0538 21.9183 22.8959 22.0096 22.8959 22.1745C22.8959 22.7114 24.2223 22.4236 24.2188 23.3078C24.2188 23.7464 23.8329 24.0165 23.2925 24.0165C22.9066 24.0165 22.5416 23.8587 22.2891 23.627L22.468 23.2692C22.7205 23.5007 23.0364 23.627 23.2995 23.627C23.5874 23.627 23.7593 23.5182 23.7593 23.3288C23.7593 22.7814 22.4327 23.0868 22.4327 22.2131C22.4327 21.7922 22.7942 21.5291 23.3276 21.5291C23.6468 21.5291 23.959 21.6308 24.1872 21.7815Z" fill="#343A40"/>
<path d="M27.6179 24.0003L27.6143 22.1653L26.8389 23.7442H26.5686L25.7932 22.1653V24.0003H25.4038V21.5442H25.8949L26.7054 23.1757L27.5126 21.5442H28.0002V24.0003H27.6179Z" fill="#343A40"/>
<path d="M15.3884 14.1077L15.3758 7.50241L12.5847 13.1856H11.6121L8.82097 7.50241V14.1077H7.41919V5.26697H9.1872L12.1048 11.1396L15.0095 5.26697H16.7651V14.1077H15.3884Z" fill="#343A40"/>
<path d="M19.0996 14.1077V5.26697H20.5898V14.1077H19.0996Z" fill="#343A40"/>
</svg>
