<svg width="51" height="20" viewBox="0 0 51 20" fill="none" xmlns="http://www.w3.org/2000/svg">
<path d="M3.27476 12.378C3.25635 12.5158 3.21289 12.6286 3.14396 12.7156C3.07504 12.8029 2.99279 12.8714 2.89645 12.922C2.80011 12.9725 2.69712 13.0081 2.58707 13.0289C2.47703 13.0496 2.37169 13.0598 2.27065 13.0598C2.15159 13.0598 2.03566 13.0473 1.92327 13.0218C1.81126 12.9968 1.71141 12.9576 1.62408 12.9047C1.53714 12.8519 1.4686 12.7876 1.41808 12.712C1.36756 12.6365 1.3425 12.5503 1.3425 12.454C1.3425 12.266 1.35149 12.0925 1.36989 11.9343C1.3883 11.7761 1.41571 11.6163 1.45253 11.4557C1.57001 10.9184 1.67889 10.4191 1.77954 9.95776C1.88019 9.49643 1.9969 9.06368 2.12888 8.65953C2.26086 8.25537 2.34936 7.85826 2.39439 7.4682C2.43865 7.07815 2.48407 6.68809 2.52832 6.29804C2.57336 5.90798 2.59178 5.50186 2.58473 5.0793C2.57729 4.65674 2.56985 4.20402 2.56123 3.72115C2.56123 3.67964 2.56123 3.62599 2.56123 3.56098C2.56123 3.49597 2.55456 3.43487 2.54163 3.3773C2.52832 3.32013 2.50562 3.27078 2.47272 3.22927C2.44022 3.18815 2.39126 3.16739 2.32586 3.16739C2.2213 3.16739 2.09402 3.20539 1.94363 3.28097C1.79325 3.35655 1.63542 3.45876 1.46976 3.58722C1.3041 3.71567 1.13884 3.86605 0.973179 4.03798C0.807523 4.2099 0.655585 4.39474 0.515775 4.59212C0.489928 4.66105 0.448424 4.71039 0.39203 4.74016C0.335245 4.76992 0.272181 4.7848 0.202863 4.7848C0.180932 4.7848 0.158232 4.76522 0.133951 4.72645C0.110062 4.68729 0.0885022 4.64029 0.0685294 4.58546C0.0489482 4.53025 0.0328916 4.47189 0.0195764 4.41002C0.00665282 4.34814 0 4.29175 0 4.24123C0 4.21381 0.00901022 4.19071 0.0274165 4.1723C0.192682 3.63068 0.37948 3.17757 0.588607 2.81258C0.797342 2.44759 1.01785 2.15622 1.24969 1.93848C1.48153 1.72034 1.71768 1.56565 1.95853 1.47362C2.19937 1.38198 2.43003 1.33577 2.65051 1.33577C2.93522 1.33577 3.17139 1.38982 3.35976 1.49751C3.54774 1.60521 3.69692 1.75676 3.80736 1.95179C3.91741 2.14682 3.99418 2.38219 4.03805 2.6575C4.08152 2.93281 4.10345 3.23788 4.10345 3.57311C4.10345 3.83002 4.07837 4.13158 4.02825 4.47777C3.97812 4.82397 3.92486 5.18817 3.87003 5.57118C3.81442 5.95419 3.74432 6.33367 3.65816 6.71041C3.572 7.08716 3.48859 7.43883 3.4083 7.76545C3.55673 7.15491 3.73218 6.56865 3.93426 6.00667C4.13673 5.44429 4.35721 4.91913 4.59649 4.43038C4.83538 3.94164 5.08993 3.49871 5.35937 3.1016C5.62881 2.7045 5.90647 2.36378 6.19236 2.07946C6.47785 1.79475 6.76727 1.57466 7.0602 1.4184C7.35274 1.26254 7.64293 1.18421 7.93155 1.18421C8.14225 1.18421 8.33729 1.23003 8.51626 1.32206C8.69524 1.4137 8.84914 1.55626 8.97759 1.74894C9.10604 1.94161 9.20591 2.18481 9.27719 2.47853C9.34846 2.77224 9.3837 3.12118 9.3837 3.52494C9.3837 3.56176 9.38017 3.61894 9.37351 3.69726C9.36647 3.77519 9.35746 3.86487 9.3461 3.96552C9.33474 4.06656 9.32104 4.17543 9.30499 4.29253C9.28893 4.40963 9.27404 4.52555 9.26033 4.64029C9.22352 4.9156 9.18475 5.21402 9.14324 5.53515L9.28775 5.5281C9.46633 4.84903 9.68642 4.23849 9.94764 3.69687C10.2088 3.15526 10.5018 2.69509 10.8268 2.31639C11.1523 1.93769 11.5028 1.6475 11.8783 1.44542C12.2539 1.24335 12.6432 1.1427 13.0462 1.1427C13.3242 1.1427 13.5713 1.22533 13.7875 1.3906C14.0041 1.55586 14.185 1.77948 14.3307 2.06184C14.4764 2.3442 14.588 2.67434 14.6651 3.05304C14.7427 3.43174 14.7815 3.83198 14.7815 4.25415C14.7815 4.64891 14.7427 5.06207 14.6655 5.49325C14.5884 5.92482 14.5116 6.35364 14.4345 6.78051C14.3581 7.20699 14.2825 7.62682 14.2085 8.0392C14.1349 8.45157 14.0644 8.84281 13.9978 9.2125C13.9316 9.58219 13.8713 9.92251 13.8165 10.2335C13.7621 10.5444 13.735 10.7798 13.735 10.9392C13.735 11.1397 13.784 11.285 13.8819 11.3747C13.9802 11.4647 14.1223 11.5098 14.3095 11.5098C14.4153 11.5098 14.5265 11.4812 14.6436 11.4236C14.7607 11.3664 14.8778 11.2905 14.9945 11.1965C15.1116 11.1025 15.2275 10.9944 15.3423 10.873C15.457 10.7512 15.5671 10.6263 15.6728 10.4978C15.916 10.2041 16.1568 9.8669 16.3957 9.48585C16.3957 9.49055 16.4165 9.53872 16.4576 9.63036C16.4897 9.7083 16.5426 9.84144 16.6158 10.0298C16.6895 10.2178 16.7924 10.4888 16.9256 10.842C16.6961 11.2458 16.46 11.5877 16.2164 11.8677C15.9728 12.1477 15.7253 12.376 15.4731 12.5527C15.2209 12.7293 14.9647 12.8566 14.7055 12.9349C14.4462 13.0128 14.1889 13.052 13.9336 13.052C13.6857 13.052 13.4437 13.0085 13.2075 12.9212C12.971 12.8338 12.7614 12.7042 12.5782 12.5323C12.3945 12.3604 12.2477 12.1469 12.138 11.892C12.0279 11.6374 11.9727 11.3449 11.9727 11.0144C11.9727 10.9775 11.9739 10.9388 11.9762 10.8973C11.9786 10.8561 11.9821 10.8146 11.9864 10.7735C12.0048 10.4661 12.0452 10.1363 12.1082 9.78545C12.1713 9.43416 12.2363 9.07034 12.304 8.6936C12.3714 8.31686 12.4399 7.93463 12.5093 7.54653C12.579 7.15883 12.6479 6.77151 12.7168 6.38615C12.7861 6.0004 12.8539 5.62131 12.9197 5.24926C12.9858 4.87722 13.0187 4.55257 13.0187 4.2753C13.0187 4.06891 13.0117 3.88171 12.9976 3.7141C12.9839 3.54648 12.9561 3.40433 12.9146 3.28723C12.8727 3.17014 12.8132 3.07967 12.7344 3.01544C12.6561 2.95122 12.5519 2.9191 12.4227 2.9191C12.1627 2.9191 11.9175 3.0037 11.6869 3.17288C11.4562 3.34206 11.2376 3.57507 11.032 3.87271C10.826 4.16995 10.6334 4.52202 10.454 4.92892C10.275 5.33582 10.1059 5.776 9.94647 6.24947C9.78707 6.72255 9.65158 7.21835 9.54036 7.73647C9.42953 8.25459 9.30695 8.79111 9.17419 9.34565C9.04065 9.90058 8.93842 10.4254 8.86754 10.9208C8.79626 11.4158 8.71637 11.892 8.62787 12.349C8.59575 12.4779 8.54681 12.5867 8.48063 12.6764C8.41444 12.7661 8.33884 12.8385 8.25269 12.8934C8.16653 12.9486 8.07528 12.9889 7.97933 13.014C7.88339 13.0391 7.78745 13.052 7.6915 13.052C7.59516 13.052 7.49999 13.0336 7.406 12.9968C7.31201 12.9599 7.22976 12.9016 7.15849 12.8213C7.08721 12.741 7.03004 12.6388 6.98696 12.5151C6.94349 12.3913 6.92156 12.2397 6.92156 12.0608C6.83306 11.9413 6.81621 11.7357 6.87182 11.4432C6.92704 11.1506 6.99441 10.8033 7.07313 10.4003C7.15185 9.9977 7.24347 9.54851 7.34804 9.05272C7.45299 8.55653 7.54856 8.0623 7.63432 7.56925C7.72048 7.07619 7.81212 6.58392 7.90963 6.09282C8.00715 5.60173 8.0557 5.1494 8.0557 4.73624C8.0557 4.45153 8.04827 4.19698 8.03417 3.97218C8.02007 3.74739 7.98678 3.55667 7.9343 3.40081C7.88182 3.24494 7.80742 3.12549 7.7099 3.04286C7.61239 2.96023 7.48276 2.9191 7.32141 2.9191C7.18787 2.9191 7.03591 3.00644 6.86477 3.18071C6.69363 3.35498 6.50958 3.59622 6.31259 3.90325C6.11521 4.21068 5.91197 4.57215 5.70245 4.98766C5.49332 5.40317 5.28536 5.85119 5.07858 6.33328C4.87181 6.81498 4.67208 7.319 4.47979 7.84417C4.28712 8.36972 4.12577 8.8992 3.99536 9.43299C3.86495 9.96677 3.73844 10.4849 3.61547 10.9873C3.49132 11.4902 3.37815 11.9539 3.27476 12.378Z" fill="#343A40"/>
<path d="M20.1484 11.5845C19.9832 11.7361 19.778 11.8978 19.5324 12.0697C19.2869 12.2417 19.0218 12.4003 18.7374 12.5448C18.4527 12.6893 18.1625 12.8099 17.8665 12.9063C17.5704 13.0026 17.2892 13.0508 17.0233 13.0508C16.7848 13.0508 16.5839 13.0175 16.421 12.9509C16.2581 12.8843 16.1261 12.7915 16.025 12.6721C15.924 12.5526 15.8519 12.4069 15.8081 12.235C15.7646 12.0631 15.7427 11.8735 15.7427 11.6672C15.7427 11.3781 15.7748 11.0406 15.839 10.6552C15.9714 9.85785 16.0564 9.40984 16.094 9.31154C16.1566 9.11573 16.2816 8.68141 16.4692 8.0086C16.6434 7.46072 16.7511 7.10356 16.7918 6.93829C16.8146 6.82237 16.8776 6.71781 16.981 6.625C17.0758 6.54158 17.1831 6.47305 17.3021 6.41979C17.422 6.36653 17.5457 6.32697 17.6742 6.30152C17.8026 6.27606 17.9189 6.26313 18.0227 6.26313C18.2119 6.26313 18.3407 6.29877 18.4081 6.36966C18.4754 6.44093 18.5095 6.5361 18.5095 6.65554C18.5095 6.75658 18.4856 6.89913 18.4386 7.08359C18.3916 7.26804 18.3376 7.47796 18.2777 7.71371C18.2174 7.94947 18.1281 8.25259 18.0098 8.62346C17.8911 8.99393 17.8105 9.30997 17.7674 9.57158C17.7239 9.83318 17.6691 10.0928 17.6033 10.3509C17.5371 10.609 17.5042 10.8436 17.5042 11.0547C17.5042 11.261 17.5273 11.4251 17.5731 11.5465C17.6189 11.6679 17.7129 11.7286 17.8555 11.7286C18.0208 11.7286 18.2044 11.6715 18.4061 11.5567C18.6082 11.442 18.8122 11.3033 19.0186 11.1404C19.225 10.9775 19.4271 10.8087 19.6245 10.6344C19.8218 10.4602 19.9961 10.311 20.1477 10.1868V11.5845H20.1484ZM17.0715 4.36024C17.0715 4.25372 17.0946 4.13309 17.1404 3.99877C17.1862 3.86444 17.261 3.73795 17.364 3.62007C17.4674 3.5018 17.6048 3.40233 17.7772 3.32126C17.9491 3.24019 18.1637 3.19946 18.4206 3.19946C18.5812 3.19946 18.7327 3.21787 18.8749 3.25507C19.0171 3.29228 19.1412 3.34907 19.2465 3.42543C19.3519 3.5018 19.4357 3.60284 19.498 3.72776C19.5599 3.85269 19.5908 4.00112 19.5908 4.17226C19.5908 4.32969 19.5657 4.48281 19.5152 4.63085C19.4647 4.77888 19.3844 4.91125 19.2743 5.02678C19.1643 5.1427 19.0253 5.2363 18.8581 5.30836C18.6904 5.38042 18.4899 5.41605 18.2557 5.41605C17.852 5.41605 17.5536 5.32011 17.3609 5.12782C17.1678 4.93593 17.0715 4.6798 17.0715 4.36024Z" fill="#343A40"/>
<path d="M19.6682 11.6146C19.6682 11.3119 19.6866 10.9618 19.7234 10.5647C19.7602 10.1676 19.8061 9.7317 19.8613 9.25666C19.9165 8.78162 19.9784 8.35358 20.0473 7.97292C20.1162 7.59187 20.1828 7.26604 20.247 6.99543C20.2976 6.78434 20.3951 6.60772 20.5396 6.46517C20.6841 6.32301 20.8803 6.25173 21.1282 6.25173C21.3761 6.25173 21.548 6.32732 21.6444 6.47887C21.7407 6.63043 21.7888 6.83212 21.7888 7.08471C21.7888 7.15364 21.7818 7.24646 21.7681 7.36355C21.7544 7.48065 21.7372 7.6091 21.7164 7.74891C21.6956 7.88872 21.6741 8.03362 21.651 8.18244C21.6279 8.33165 21.6064 8.50122 21.5856 8.69194C21.5648 8.88227 21.5476 9.02482 21.5339 9.11881C21.5202 9.2128 21.5132 9.27585 21.5132 9.30796H21.651C21.6784 9.25744 21.7223 9.17599 21.7818 9.06359C21.8413 8.9512 21.9103 8.78945 21.9882 8.57837C22.0661 8.36728 22.1499 8.18008 22.2396 8.01717C22.3289 7.85425 22.4127 7.69839 22.491 7.54918C22.569 7.39997 22.6402 7.268 22.7045 7.15325C22.7687 7.0385 22.8169 6.95352 22.849 6.8987C22.9958 6.6508 23.1635 6.48122 23.3514 6.38919C23.5394 6.29755 23.7485 6.25134 23.978 6.25134C24.2075 6.25134 24.39 6.34768 24.5251 6.54036C24.6602 6.73304 24.7284 6.99934 24.7284 7.33888C24.7284 7.3894 24.7182 7.47438 24.6974 7.59343C24.6767 7.71249 24.6505 7.85504 24.6183 8.02031C24.5862 8.18557 24.5506 8.399 24.5118 8.66061C24.473 8.92221 24.4374 9.1564 24.4049 9.36279C24.3728 9.56918 24.3466 9.7736 24.3258 9.97529C24.305 10.1774 24.2949 10.363 24.2949 10.533C24.2949 10.8177 24.3305 11.0515 24.4014 11.2351C24.4727 11.4188 24.5839 11.5105 24.7354 11.5105C24.7907 11.5105 24.8686 11.4897 24.9696 11.4486C25.1212 11.3934 25.2175 11.3452 25.2587 11.3041C25.4607 11.1482 25.5661 11.0722 25.5755 11.0769C25.5892 11.0816 25.7431 10.9896 26.0368 10.8016C26.4042 10.5674 26.8424 10.2808 27.3515 9.94122L27.3444 11.4834L27.0002 11.745C26.9728 11.7681 26.757 11.8872 26.3532 12.103C25.7705 12.4151 25.4055 12.6031 25.2587 12.6673C24.9007 12.8279 24.6783 12.9199 24.5909 12.9426C24.3614 13.0163 24.1206 13.0527 23.868 13.0527C23.6158 13.0527 23.4035 12.8702 23.2312 12.5056C23.0593 12.1406 22.9731 11.6072 22.9731 10.905C22.9731 10.6297 22.9915 10.3325 23.0284 10.0137C23.0652 9.6945 23.111 9.35182 23.1662 8.98448H23.0562L21.2527 12.5643C21.1564 12.757 21.053 12.8854 20.943 12.9497C20.8282 13.0186 20.6951 13.0531 20.5439 13.0531C20.3555 13.0531 20.2043 13.0127 20.0896 12.9324C19.9748 12.8522 19.8867 12.7445 19.8245 12.609C19.7622 12.4735 19.7211 12.3199 19.7007 12.1476C19.6784 11.9761 19.6682 11.7983 19.6682 11.6146Z" fill="#343A40"/>
<path d="M30.5308 11.5845C30.3655 11.7361 30.1603 11.8978 29.9147 12.0697C29.6692 12.2417 29.4041 12.4003 29.1198 12.5448C28.8351 12.6893 28.5449 12.8099 28.2488 12.9063C27.9527 13.0026 27.6715 13.0508 27.4056 13.0508C27.1671 13.0508 26.9662 13.0175 26.8033 12.9509C26.6404 12.8843 26.5084 12.7915 26.4074 12.6721C26.3063 12.5526 26.2343 12.4069 26.1904 12.235C26.147 12.0631 26.125 11.8735 26.125 11.6672C26.125 11.3781 26.1571 11.0406 26.2214 10.6552C26.3537 9.85785 26.4387 9.40984 26.4763 9.31154C26.539 9.11573 26.6643 8.68141 26.8515 8.0086C27.0258 7.46072 27.1334 7.10356 27.1742 6.93829C27.1969 6.82237 27.2599 6.71781 27.3633 6.625C27.4581 6.54158 27.5654 6.47305 27.6845 6.41979C27.8043 6.36653 27.928 6.32697 28.0565 6.30152C28.1849 6.27606 28.3013 6.26313 28.405 6.26313C28.5942 6.26313 28.7227 6.29877 28.7904 6.36966C28.8578 6.44093 28.8918 6.5361 28.8918 6.65554C28.8918 6.75658 28.8679 6.89913 28.821 7.08359C28.774 7.26804 28.7199 7.47796 28.66 7.71371C28.5997 7.94947 28.5104 8.25259 28.3921 8.62346C28.2734 8.99393 28.1928 9.30997 28.1497 9.57158C28.1062 9.83318 28.0514 10.0928 27.9856 10.3509C27.9194 10.609 27.8865 10.8436 27.8865 11.0547C27.8865 11.261 27.9096 11.4251 27.9555 11.5465C28.0013 11.6679 28.0953 11.7286 28.2378 11.7286C28.4031 11.7286 28.5868 11.6715 28.7884 11.5567C28.9905 11.442 29.1946 11.3033 29.401 11.1404C29.6073 10.9775 29.8094 10.8087 30.0068 10.6344C30.2042 10.4602 30.3784 10.311 30.53 10.1868V11.5845H30.5308ZM27.4538 4.36024C27.4538 4.25372 27.4769 4.13309 27.5227 3.99877C27.5685 3.86444 27.6433 3.73795 27.7463 3.62007C27.8497 3.5018 27.9872 3.40233 28.1595 3.32126C28.3314 3.24019 28.546 3.19946 28.8029 3.19946C28.9635 3.19946 29.1151 3.21787 29.2572 3.25507C29.3994 3.29228 29.5235 3.34907 29.6289 3.42543C29.7346 3.5018 29.818 3.60284 29.8803 3.72776C29.9422 3.85269 29.9731 4.00112 29.9731 4.17226C29.9731 4.32969 29.9481 4.48281 29.8975 4.63085C29.847 4.77888 29.7667 4.91125 29.6567 5.02678C29.5466 5.1427 29.4076 5.2363 29.2404 5.30836C29.0728 5.38042 28.8723 5.41605 28.6381 5.41605C28.2343 5.41605 27.9359 5.32011 27.7432 5.12782C27.5501 4.93593 27.4538 4.6798 27.4538 4.36024Z" fill="#343A40"/>
<path d="M32.9119 11.8027C32.9119 11.7428 32.9166 11.6574 32.9256 11.547C32.9346 11.4365 32.9487 11.3093 32.9668 11.1667C32.9852 11.0238 33.0059 10.873 33.0286 10.714C33.0517 10.555 33.0744 10.3972 33.0975 10.2405C33.1481 9.8716 33.2099 9.47528 33.2836 9.05115H33.1802C33.125 9.12047 33.0619 9.22425 32.991 9.36288C32.9197 9.50152 32.8199 9.70477 32.6914 9.97264C32.563 10.2405 32.3989 10.5879 32.1992 11.0151C31.9994 11.4424 31.7413 11.9656 31.4245 12.5848C31.3329 12.7673 31.226 12.891 31.1046 12.9556C30.9832 13.0203 30.8488 13.0524 30.702 13.0524C30.514 13.0524 30.3625 13.0132 30.2477 12.9357C30.133 12.8577 30.0445 12.7528 29.9826 12.6216C29.9207 12.4904 29.8792 12.3408 29.8588 12.174C29.8381 12.0067 29.8279 11.8344 29.8279 11.6558C29.8279 11.4667 29.8392 11.2427 29.8623 10.9838C29.8855 10.7253 29.9152 10.4528 29.952 10.1661C29.9888 9.87983 30.0425 9.55282 30.1138 9.18548C30.185 8.81813 30.2469 8.49818 30.2998 8.22443C30.3527 7.95108 30.4063 7.70122 30.4615 7.47408C30.5167 7.24694 30.5673 7.0617 30.6131 6.91837C30.6589 6.76994 30.7024 6.65206 30.7439 6.56395C30.785 6.47583 30.8324 6.40769 30.8849 6.35913C30.9377 6.31057 31.0008 6.27806 31.074 6.26161C31.1477 6.24556 31.2416 6.23733 31.3564 6.23733C31.5307 6.23733 31.6673 6.2432 31.766 6.25456C31.8647 6.26631 31.9384 6.29412 31.9865 6.33798C32.0347 6.38184 32.0633 6.44567 32.0727 6.52909C32.0817 6.61251 32.0864 6.72608 32.0864 6.86941C32.0864 6.94813 32.0828 7.0386 32.0762 7.14042C32.0691 7.24224 32.059 7.35111 32.0452 7.46703C32.0362 7.58256 32.0222 7.70083 32.0041 7.82106C31.972 8.0529 31.9536 8.17313 31.9489 8.18253C31.8847 8.49778 31.8181 8.84986 31.7492 9.23874L31.8248 9.32215C31.8338 9.30805 31.8949 9.18548 32.0073 8.95403C32.1197 8.72258 32.2415 8.49308 32.3723 8.26594C32.5031 8.03919 32.644 7.80148 32.7956 7.55397C32.9472 7.30607 33.0917 7.08716 33.2291 6.89722C33.3623 6.70728 33.5033 6.54985 33.6525 6.42453C33.8017 6.2996 33.9795 6.23694 34.1859 6.23694C34.3785 6.23694 34.5438 6.29373 34.6817 6.4073C34.8195 6.52087 34.8881 6.68182 34.8881 6.89017C34.8881 7.07071 34.8767 7.24224 34.8536 7.40437C34.8262 7.61271 34.7984 7.77015 34.771 7.87667C34.7388 7.99729 34.702 8.14532 34.6609 8.32155C34.6288 8.47468 34.5712 8.69438 34.489 8.98183C34.4753 9.02804 34.4616 9.09501 34.4475 9.18313C34.4428 9.21093 34.4404 9.22973 34.4404 9.23874L34.516 9.32215C34.525 9.30805 34.5896 9.18665 34.7087 8.95755C34.8281 8.72806 34.9578 8.50013 35.0976 8.27299C35.2374 8.04624 35.3866 7.80775 35.5452 7.5575C35.7038 7.30725 35.8514 7.08716 35.9893 6.89722C36.1224 6.71198 36.2556 6.55572 36.3888 6.42844C36.5219 6.30116 36.6848 6.23733 36.8775 6.23733C37.0933 6.23733 37.2758 6.29412 37.4246 6.40769C37.5738 6.52126 37.6482 6.68222 37.6482 6.89056C37.6482 7.21013 37.6322 7.51364 37.6 7.8007C37.5679 8.08776 37.5198 8.40536 37.4555 8.75273C37.3913 9.1001 37.3431 9.41614 37.311 9.70125C37.2789 9.98596 37.2629 10.2883 37.2629 10.6079C37.2629 10.8581 37.295 11.0617 37.3592 11.2192C37.4234 11.3766 37.5013 11.4553 37.5934 11.4553C37.6897 11.4553 37.7908 11.4346 37.8961 11.3927C38.0018 11.3512 38.1095 11.2975 38.2196 11.2329C38.3296 11.1683 38.4377 11.0931 38.5431 11.0073C38.6484 10.9215 38.7495 10.8326 38.8458 10.7398C39.0706 10.5264 39.2934 10.2859 39.5135 10.0173L39.6306 11.6492C39.4285 11.805 39.228 11.9668 39.0283 12.1336C38.8286 12.3008 38.6175 12.4524 38.395 12.5883C38.1726 12.7242 37.9282 12.8354 37.6619 12.9223C37.3956 13.0093 37.0952 13.0528 36.76 13.0528C36.5947 13.0528 36.4561 12.9999 36.3437 12.8942C36.2313 12.7884 36.1405 12.6412 36.0719 12.4524C36.003 12.2636 35.9537 12.0412 35.9239 11.7847C35.8941 11.5286 35.8792 11.2497 35.8792 10.9482C35.8792 10.6564 35.8894 10.3474 35.9102 10.0208C35.9309 9.69419 35.9595 9.36406 35.9963 9.03078H35.893L34.4956 12.5671C34.3762 12.7587 34.243 12.8875 34.0962 12.9537C33.9493 13.0199 33.7794 13.0528 33.5867 13.0528C33.4398 13.0528 33.3227 13.0136 33.2358 12.9361C33.1484 12.8581 33.0807 12.7579 33.0325 12.6353C32.9844 12.5127 32.9523 12.378 32.9362 12.2311C32.9201 12.0835 32.9119 11.9409 32.9119 11.8027Z" fill="#343A40"/>
<path d="M46.1766 11.3473C46.0709 11.4957 45.9299 11.67 45.7533 11.8693C45.5767 12.069 45.3781 12.2593 45.1576 12.4403C44.9371 12.6212 44.701 12.7747 44.4488 12.8996C44.1962 13.025 43.944 13.0876 43.6914 13.0876C43.3867 13.0876 43.1322 12.9909 42.9289 12.7982C42.7257 12.6051 42.5494 12.3244 42.4014 11.9566C42.2906 12.0839 42.1539 12.2131 41.9921 12.3447C41.83 12.4763 41.653 12.5958 41.4615 12.7023C41.2696 12.8092 41.0691 12.8965 40.8611 12.9647C40.6528 13.0328 40.4448 13.0669 40.2365 13.0669C40.016 13.0669 39.8018 13.0218 39.593 12.9314C39.3843 12.8413 39.1995 12.7113 39.0389 12.5425C38.8783 12.3737 38.7499 12.1673 38.6535 11.9245C38.5572 11.6813 38.509 11.4072 38.509 11.1013C38.509 10.7583 38.5576 10.4062 38.6543 10.0451C38.7515 9.68403 38.9014 9.2928 39.1043 8.87219C39.3076 8.4512 39.5257 8.08777 39.7587 7.78113C39.9921 7.47488 40.2471 7.2074 40.5239 6.97869C40.8008 6.74998 41.093 6.56827 41.4 6.43355C41.7066 6.29844 42.0195 6.23108 42.3379 6.23108C42.4445 6.23108 42.5271 6.25184 42.5874 6.29374C42.6473 6.33564 42.6971 6.38303 42.7366 6.43629C42.7758 6.48955 42.8134 6.54203 42.8506 6.59294C42.8878 6.64385 42.9336 6.68106 42.9892 6.70416C43.0448 6.72727 43.1012 6.74254 43.1592 6.7492C43.2171 6.75625 43.2759 6.75977 43.3358 6.75977C43.3867 6.75977 43.4384 6.7586 43.4913 6.75625C43.5445 6.7539 43.5962 6.75272 43.6471 6.75272C43.7165 6.75272 43.7811 6.75978 43.841 6.77348C43.9009 6.78758 43.9538 6.81773 44 6.86394C44.0458 6.91055 44.0815 6.97516 44.1065 7.05897C44.132 7.14239 44.1445 7.25596 44.1445 7.40008C44.1445 7.61939 44.1214 7.86258 44.0756 8.13006C44.0297 8.39754 43.9773 8.67129 43.9181 8.95208C43.859 9.23248 43.7913 9.55244 43.7153 9.91156C43.6397 10.2707 43.6017 10.5734 43.6017 10.8197C43.6017 11.03 43.6213 11.1945 43.6601 11.3128C43.6988 11.4311 43.783 11.4906 43.9115 11.4906C44.0078 11.4906 44.1089 11.4667 44.2142 11.4189C44.3199 11.3711 44.4265 11.3089 44.5342 11.2313C44.6419 11.1542 44.7499 11.0665 44.8576 10.9686C44.9653 10.8706 45.0675 10.7696 45.1639 10.665C45.3887 10.4195 45.6158 10.1418 45.8453 9.83245L46.1766 11.3473ZM40.271 10.808C40.271 10.9263 40.2788 11.041 40.2948 11.1522C40.3109 11.2634 40.3395 11.3629 40.3814 11.4503C40.4229 11.538 40.4777 11.6089 40.5467 11.6633C40.6156 11.7177 40.7029 11.7451 40.8087 11.7451C40.979 11.7451 41.1329 11.6711 41.2708 11.5235C41.409 11.3755 41.5285 11.1977 41.6295 10.9901C41.7305 10.7821 41.8124 10.5671 41.8743 10.3455C41.9361 10.1238 41.9769 9.93897 41.9949 9.79094L42.5083 7.5532C42.3199 7.5532 42.1367 7.5998 41.9577 7.69301C41.7787 7.78622 41.6099 7.91271 41.4517 8.07171C41.2935 8.2311 41.1478 8.41321 41.0146 8.61764C40.8815 8.82246 40.7507 9.07466 40.6222 9.37504C40.4938 9.67541 40.4029 9.93936 40.3505 10.1665C40.2976 10.394 40.271 10.6079 40.271 10.808Z" fill="#343A40"/>
<path d="M47.1545 13.0524C46.9074 13.0524 46.6775 12.9451 46.4652 12.7305C46.2526 12.5159 46.067 12.2281 45.9095 11.8666C45.7521 11.5051 45.6283 11.0861 45.5394 10.6095C45.4498 10.1329 45.4055 9.63277 45.4055 9.10838C45.4055 8.65802 45.4717 8.05688 45.6041 7.30496C45.7364 6.55304 45.8026 6.17708 45.8026 6.17708C45.8026 6.17708 45.9029 5.80191 46.1034 5.05077C46.3043 4.29964 46.5048 3.69732 46.7069 3.24343C46.9086 2.78993 47.1271 2.3658 47.364 1.97183C47.6006 1.57785 47.8481 1.2344 48.1077 0.941466C48.3674 0.648923 48.6384 0.418648 48.9211 0.251033C49.2043 0.08381 49.4913 0 49.7835 0C49.9957 0 50.1712 0.0407307 50.3098 0.121797C50.4481 0.202863 50.5569 0.310165 50.6361 0.442925C50.7148 0.576077 50.7708 0.726852 50.8029 0.89525C50.835 1.06365 50.8511 1.23518 50.8511 1.40985C50.8511 1.84377 50.7998 2.28552 50.6971 2.73549C50.5942 3.18547 50.4563 3.6378 50.2816 4.09208C50.1077 4.54675 49.9061 5.00221 49.677 5.45924C49.4479 5.91626 49.2094 6.36937 48.9611 6.81934C48.7128 7.26932 48.4633 7.71264 48.2131 8.14852C47.9624 8.5844 47.7318 9.01087 47.5195 9.42756C47.4964 9.47377 47.4725 9.53408 47.4471 9.6081C47.4216 9.68211 47.3973 9.762 47.3742 9.84777C47.3511 9.93314 47.3284 10.0248 47.3053 10.1219C47.2818 10.219 47.2638 10.3138 47.2497 10.4066V10.5037C47.2497 10.6244 47.2622 10.7411 47.2877 10.8546C47.3127 10.9678 47.3441 11.0696 47.3809 11.1601C47.4177 11.2506 47.4568 11.3222 47.4984 11.3755C47.5395 11.4288 47.579 11.4554 47.6158 11.4554C47.7055 11.4554 47.8073 11.437 47.9225 11.3998C48.0376 11.3626 48.1594 11.3128 48.2887 11.2506C48.4179 11.1883 48.5507 11.1166 48.6869 11.0356C48.8236 10.9545 48.9552 10.8723 49.0821 10.7892C49.3781 10.595 49.6883 10.3706 50.0126 10.116L50.6204 11.567C50.1998 11.8462 49.7839 12.0949 49.3727 12.313C49.1929 12.4047 49.0073 12.4951 48.8162 12.5848C48.6247 12.6745 48.4324 12.754 48.2381 12.8237C48.0443 12.8938 47.8555 12.949 47.6711 12.9906C47.4878 13.0317 47.3151 13.0524 47.1545 13.0524ZM47.1612 7.59555C47.3683 7.22546 47.588 6.80877 47.8207 6.34587C48.0533 5.88297 48.273 5.40636 48.4805 4.91605C48.6877 4.42535 48.8671 3.93582 49.019 3.44786C49.1714 2.9595 49.2677 2.50483 49.3092 2.08383C49.3092 1.9495 49.3057 1.83515 49.2994 1.73998C49.2932 1.64482 49.2724 1.59783 49.2376 1.59783C49.1115 1.59783 48.9756 1.68515 48.8299 1.85904C48.6842 2.03331 48.5385 2.26946 48.3928 2.56709C48.2475 2.86473 48.0737 3.34877 47.8712 4.01884C47.6687 4.6893 47.5677 5.02453 47.5677 5.02453C47.5677 5.02453 47.5062 5.33587 47.3824 5.95777C47.2583 6.57928 47.1847 7.12521 47.1612 7.59555Z" fill="#343A40"/>
<path d="M5.6355 19.9947V18.3507H5.91277V19.9947H5.6355Z" fill="#343A40"/>
<path d="M8.67466 19.9947L7.799 18.816V19.9947H7.52173V18.3507H7.79391L8.67466 19.5322V18.3507H8.94684V19.9947H8.67466Z" fill="#343A40"/>
<path d="M11.1556 18.5998V19.9947H10.8783V18.5998H10.3594V18.3507H11.6768V18.5998H11.1556Z" fill="#343A40"/>
<path d="M13.3676 18.5998V19.0435H14.1708V19.2926H13.3676V19.7457H14.2926V19.9947H13.0903V18.3507H14.2644V18.5998H13.3676Z" fill="#343A40"/>
<path d="M16.5484 19.497C16.5249 19.4993 16.499 19.4993 16.4736 19.4993H16.0839V19.9947H15.8066V18.3507H16.4736C16.8938 18.3507 17.1358 18.5551 17.1358 18.9119C17.1358 19.1751 17.0132 19.3603 16.7951 19.4449L17.1636 19.9944H16.8488L16.5484 19.497ZM16.4732 19.2503C16.7266 19.2503 16.8726 19.1422 16.8726 18.919C16.8726 18.7028 16.7269 18.5998 16.4732 18.5998H16.0835V19.2503H16.4732Z" fill="#343A40"/>
<path d="M18.6792 19.9947V18.3507H18.9565V19.9947H18.6792Z" fill="#343A40"/>
<path d="M22.1722 19.1739C22.1722 19.6435 21.7915 20.0073 21.3008 20.0073C20.8101 20.0073 20.4294 19.6435 20.4294 19.1739C20.4294 18.7016 20.8101 18.3448 21.3008 18.3448C21.7919 18.3445 22.1722 18.704 22.1722 19.1739ZM20.7118 19.1739C20.7118 19.5001 20.982 19.7586 21.3035 19.7586C21.6251 19.7586 21.8882 19.5001 21.8882 19.1739C21.8882 18.8473 21.6251 18.5939 21.3035 18.5939C20.9793 18.5935 20.7118 18.8473 20.7118 19.1739Z" fill="#343A40"/>
<path d="M24.7963 19.9947L23.9206 18.816V19.9947H23.6433V18.3507H23.9155L24.7963 19.5322V18.3507H25.0684V19.9947H24.7963Z" fill="#343A40"/>
<path d="M29.1337 18.3507C29.6271 18.3507 29.9839 18.6957 29.9839 19.1727C29.9839 19.647 29.6248 19.9947 29.1266 19.9947H28.4597V18.3507H29.1337ZM28.737 19.7457H29.1407C29.4599 19.7457 29.7039 19.5087 29.7039 19.1751C29.7039 18.8395 29.4525 18.5998 29.1286 18.5998H28.7366L28.737 19.7457Z" fill="#343A40"/>
<path d="M31.7341 18.5998V19.0435H32.5373V19.2926H31.7341V19.7457H32.6591V19.9947H31.4568V18.3507H32.6309V18.5998H31.7341Z" fill="#343A40"/>
<path d="M35.2873 18.5079L35.1721 18.7523C34.9936 18.6442 34.815 18.5995 34.6908 18.5995C34.5287 18.5995 34.423 18.6606 34.423 18.7711C34.423 19.1302 35.3108 18.9379 35.3084 19.5296C35.3084 19.8234 35.0504 20.0043 34.6885 20.0043C34.43 20.0043 34.186 19.8986 34.0168 19.7435L34.1367 19.5038C34.3059 19.6589 34.5174 19.7435 34.6932 19.7435C34.8859 19.7435 35.001 19.6706 35.001 19.5437C35.001 19.1772 34.1128 19.3816 34.1128 18.7969C34.1128 18.5149 34.3548 18.3391 34.7116 18.3391C34.9258 18.3391 35.1349 18.4069 35.2873 18.5079Z" fill="#343A40"/>
<path d="M36.8086 19.9947V18.3507H37.0859V19.9947H36.8086Z" fill="#343A40"/>
<path d="M40.0617 19.188V19.7939C39.8948 19.9207 39.6481 20.0073 39.4229 20.0073C38.9365 20.0073 38.5586 19.6435 38.5586 19.1739C38.5586 18.704 38.9416 18.3448 39.4393 18.3448C39.6743 18.3448 39.9089 18.4341 40.0706 18.5751L39.9136 18.7792C39.7867 18.6617 39.6109 18.5912 39.4393 18.5912C39.1033 18.5912 38.8406 18.8469 38.8406 19.1735C38.8406 19.5021 39.1061 19.7582 39.4417 19.7582C39.5635 19.7582 39.7021 19.7159 39.8196 19.6454V19.1876H40.0617V19.188Z" fill="#343A40"/>
<path d="M42.7809 19.9947L41.9052 18.816V19.9947H41.6279V18.3507H41.9001L42.7809 19.5322V18.3507H43.0531V19.9947H42.7809Z" fill="#343A40"/>
</svg>
