<svg width="70" height="17" viewBox="0 0 70 17" fill="none" xmlns="http://www.w3.org/2000/svg">
<path d="M23.1064 16.0567V15.0074H23.2834V16.0567H23.1064Z" fill="#343A40"/>
<path d="M25.0455 16.0567L24.4866 15.3039V16.0567H24.3096V15.0074H24.4833L25.0455 15.7614V15.0074H25.2193V16.0567H25.0455Z" fill="#343A40"/>
<path d="M26.6308 15.1662V16.0569H26.4538V15.1662H26.1226V15.0074H26.9635V15.1662H26.6308Z" fill="#343A40"/>
<path d="M28.043 15.166V15.4494H28.5557V15.6084H28.043V15.8977H28.6334V16.0567H27.866V15.0074H28.6154V15.1662L28.043 15.166Z" fill="#343A40"/>
<path d="M30.0724 15.7387C30.0574 15.7402 30.0409 15.7402 30.0246 15.7402H29.7759V16.0567H29.5989V15.0074H30.0246C30.2929 15.0074 30.4474 15.138 30.4474 15.3657C30.4474 15.5337 30.3691 15.6522 30.2299 15.7059L30.4651 16.0567H30.2641L30.0724 15.7387ZM30.0244 15.5812C30.1864 15.5812 30.2794 15.5124 30.2794 15.3699C30.2794 15.2319 30.1864 15.1657 30.0244 15.1657H29.7756V15.5809H30.0244V15.5812Z" fill="#343A40"/>
<path d="M31.4343 16.0567V15.0074H31.6113V16.0567H31.4343Z" fill="#343A40"/>
<path d="M33.6623 15.5322C33.6623 15.8319 33.4193 16.0644 33.106 16.0644C32.7928 16.0644 32.5498 15.8319 32.5498 15.5322C32.5498 15.2309 32.7928 15.0029 33.106 15.0029C33.4195 15.0027 33.6623 15.2322 33.6623 15.5322ZM32.73 15.5322C32.73 15.7404 32.9023 15.9054 33.1078 15.9054C33.3133 15.9054 33.481 15.7404 33.481 15.5322C33.481 15.3237 33.313 15.1619 33.1078 15.1619C32.9008 15.1617 32.73 15.3234 32.73 15.5322Z" fill="#343A40"/>
<path d="M35.0748 15.7387C35.0598 15.7402 35.0433 15.7402 35.0271 15.7402H34.7783V16.0567H34.6013V15.0074H35.0271C35.2953 15.0074 35.4498 15.138 35.4498 15.3657C35.4498 15.5337 35.3715 15.6522 35.2323 15.7059L35.4678 16.0567H35.2668L35.0748 15.7387ZM35.0268 15.5812C35.1886 15.5812 35.2818 15.5124 35.2818 15.3699C35.2818 15.2319 35.1888 15.1657 35.0268 15.1657H34.7781V15.5809H35.0268V15.5812Z" fill="#343A40"/>
<path d="M38.0035 15.0074C38.3185 15.0074 38.5462 15.2277 38.5462 15.5322C38.5462 15.8349 38.317 16.0569 37.9992 16.0569H37.5735V15.0077L38.0035 15.0074ZM37.7502 15.8977H38.008C38.2117 15.8977 38.3675 15.7462 38.3675 15.5334C38.3675 15.3192 38.207 15.1659 38.0002 15.1659H37.75L37.7502 15.8977Z" fill="#343A40"/>
<path d="M39.6631 15.166V15.4494H40.1758V15.6084H39.6631V15.8977H40.2536V16.0567H39.4861V15.0074H40.2356V15.1662L39.6631 15.166Z" fill="#343A40"/>
<path d="M41.9318 15.1079L41.8583 15.2639C41.7443 15.1949 41.6303 15.1661 41.5511 15.1661C41.4476 15.1661 41.3801 15.2051 41.3801 15.2759C41.3801 15.5051 41.9468 15.3824 41.9453 15.7599C41.9453 15.9473 41.7806 16.0629 41.5496 16.0629C41.3846 16.0629 41.2288 15.9951 41.1208 15.8964L41.1974 15.7436C41.3054 15.8426 41.4403 15.8964 41.5526 15.8964C41.6756 15.8964 41.7491 15.8501 41.7491 15.7689C41.7491 15.5349 41.1821 15.6654 41.1821 15.2921C41.1821 15.1121 41.3366 14.9999 41.5643 14.9999C41.7011 15.0001 41.8346 15.0434 41.9318 15.1079Z" fill="#343A40"/>
<path d="M42.9021 16.0567V15.0074H43.0791V16.0567H42.9021Z" fill="#343A40"/>
<path d="M44.9771 15.5412V15.9279C44.8706 16.0087 44.7131 16.0644 44.5693 16.0644C44.2588 16.0644 44.0176 15.8319 44.0176 15.5322C44.0176 15.2324 44.2618 15.0029 44.5798 15.0029C44.7298 15.0029 44.8796 15.0599 44.9828 15.1499L44.8826 15.2802C44.8016 15.2052 44.6893 15.1604 44.5798 15.1604C44.3653 15.1604 44.1976 15.3237 44.1976 15.5322C44.1976 15.7419 44.3671 15.9054 44.5813 15.9054C44.6593 15.9054 44.7476 15.8784 44.8226 15.8334V15.5412H44.9771Z" fill="#343A40"/>
<path d="M46.7145 16.0567L46.1555 15.3039V16.0567H45.9785V15.0074H46.1523L46.7145 15.7614V15.0074H46.8882V16.0567H46.7145Z" fill="#343A40"/>
<path d="M32.4469 1.05679V0.164806H32.2417V0.00756836H32.6239V1.05679H32.4469Z" fill="#343A40"/>
<path d="M33.6452 0.98447L33.714 0.851218C33.7785 0.893217 33.867 0.917226 33.9465 0.917226C34.1502 0.917226 34.2447 0.764473 34.2387 0.537979C34.1832 0.635477 34.0845 0.686474 33.9527 0.686474C33.7427 0.686474 33.6152 0.556234 33.6152 0.352239C33.6152 0.134995 33.7607 0 33.984 0C34.2492 0 34.4115 0.18899 34.4115 0.511231C34.4115 0.845472 34.236 1.06447 33.9585 1.06447C33.855 1.06397 33.7307 1.03247 33.6452 0.98447ZM34.2105 0.347235C34.212 0.255987 34.1445 0.152492 33.993 0.152492C33.8655 0.152492 33.78 0.225994 33.78 0.353491C33.78 0.473237 33.8582 0.546738 33.9855 0.546738C34.128 0.546738 34.212 0.455482 34.2105 0.347235Z" fill="#343A40"/>
<path d="M36.0465 0.271248C36.0465 0.373245 35.9882 0.45274 35.8905 0.495988C36.018 0.537987 36.099 0.635489 36.099 0.762735C36.099 0.95023 35.943 1.06423 35.6942 1.06423C35.447 1.06423 35.291 0.95023 35.291 0.765985C35.291 0.636989 35.3735 0.537987 35.5068 0.495988C35.405 0.44949 35.3435 0.366999 35.3435 0.265251C35.3435 0.100256 35.48 0 35.6942 0C35.91 0 36.0465 0.103503 36.0465 0.271248ZM35.4588 0.746485C35.4588 0.860482 35.5443 0.924977 35.694 0.924977C35.8438 0.924977 35.9307 0.860482 35.9307 0.746485C35.9307 0.636988 35.8438 0.572738 35.694 0.572738C35.5458 0.572738 35.4588 0.636988 35.4588 0.746485ZM35.4932 0.281746C35.4932 0.379243 35.5683 0.434741 35.6942 0.434741C35.8217 0.434741 35.8952 0.378993 35.8952 0.281746C35.8952 0.184248 35.8217 0.127499 35.6942 0.127499C35.568 0.127249 35.4932 0.184248 35.4932 0.281746Z" fill="#343A40"/>
<path d="M37.1956 0.166561V0.393056L37.3396 0.391545C37.5674 0.391545 37.7144 0.526301 37.7144 0.710796C37.7144 0.92354 37.5616 1.06304 37.3261 1.06304C37.2016 1.06304 37.0561 1.01503 36.9529 0.942784L37.0231 0.799035C37.1071 0.869283 37.2121 0.90978 37.3066 0.90978C37.4431 0.90978 37.5254 0.839531 37.5254 0.721034C37.5254 0.614537 37.4431 0.548554 37.3081 0.548554C37.2451 0.548554 37.1029 0.554802 37.0321 0.562301V0.00756836H37.6709L37.6724 0.166301H37.1956V0.166561Z" fill="#343A40"/>
<path d="M69.999 15.4491H49.9995V15.9491H69.999V15.4491Z" fill="#343A40"/>
<path d="M19.9994 15.4491H0V15.9491H19.9994V15.4491Z" fill="#343A40"/>
<path d="M4.87608 9.35119H4.83108H3.61636V11.1239H2.01465V4.82483H4.83133C6.49603 4.82483 7.45 5.6168 7.45 7.02051C7.45 7.98348 7.04526 8.67621 6.30728 9.0452L7.63 11.1239H5.8123L4.87608 9.35119ZM4.83108 8.09123C5.52381 8.09123 5.92904 7.74049 5.92904 7.07451C5.92904 6.41778 5.52406 6.08479 4.83108 6.08479H3.61636V8.09123H4.83108Z" fill="#343A40"/>
<path d="M10.133 6.08479V7.3355H13.1386V8.59548H10.133V9.86418H13.5616V11.1239H8.53125V4.82483H13.4626V6.08479H10.133Z" fill="#343A40"/>
<path d="M17.5127 6.11138V11.1237H15.911V6.11138H14.0303V4.81567H19.4114V6.11138H17.5127Z" fill="#343A40"/>
<path d="M22.9569 9.35119H22.9119H21.6972V11.1239H20.0955V4.82483H22.9121C24.5768 4.82483 25.5308 5.6168 25.5308 7.02051C25.5308 7.98348 25.1261 8.67621 24.3881 9.0452L25.7108 11.1239H23.8931L22.9569 9.35119ZM22.9119 8.09123C23.6046 8.09123 24.0099 7.74049 24.0099 7.07451C24.0099 6.41778 23.6049 6.08479 22.9119 6.08479H21.6972V8.09123H22.9119Z" fill="#343A40"/>
<path d="M33.0088 7.9648C33.0088 9.80075 31.5511 11.1955 29.5982 11.1955C27.6547 11.1955 26.197 9.80975 26.197 7.9648C26.197 6.1291 27.6547 4.77039 29.5982 4.77039C31.5511 4.77039 33.0088 6.13835 33.0088 7.9648ZM27.8347 7.97379C27.8347 9.03576 28.6534 9.85449 29.6164 9.85449C30.5884 9.85449 31.3621 9.03576 31.3621 7.97379C31.3621 6.91207 30.5881 6.11109 29.6164 6.11109C28.6447 6.11109 27.8347 6.91207 27.8347 7.97379Z" fill="#343A40"/>
<path d="M36.5649 4.82483C38.5446 4.82483 39.9125 6.10254 39.9125 7.97449C39.9125 9.83719 38.5266 11.1242 36.5019 11.1242H33.8562V4.82507L36.5649 4.82483ZM35.4579 9.84619H36.6006C37.5816 9.84619 38.2836 9.09046 38.2836 7.98349C38.2836 6.86777 37.5458 6.10279 36.5286 6.10279H35.4579V9.84619Z" fill="#343A40"/>
<path d="M42.3607 6.08479V7.3355H45.3664V8.59548H42.3607V9.86418H45.7894V11.1239H40.759V4.82483H45.6904V6.08479H42.3607Z" fill="#343A40"/>
<path d="M51.7285 5.4543L51.1255 6.70502C50.4595 6.31803 49.6226 6.04803 49.1098 6.04803C48.6961 6.04803 48.4171 6.20102 48.4171 6.50702C48.4171 7.59599 51.7465 6.975 51.7465 9.25169C51.7465 10.5117 50.6308 11.1774 49.2271 11.1774C48.1741 11.1774 47.0944 10.7814 46.3474 10.1697L46.9681 8.93671C47.6161 9.5037 48.5878 9.88143 49.2446 9.88143C49.7486 9.88143 50.0636 9.69244 50.0636 9.3327C50.0636 8.21673 46.7342 8.88271 46.7342 6.65102C46.7342 5.49006 47.7329 4.75232 49.2446 4.75232C50.1536 4.75232 51.0805 5.03131 51.7285 5.4543Z" fill="#343A40"/>
<path d="M52.6194 11.1239V4.82483H54.2211V11.1239H52.6194Z" fill="#343A40"/>
<path d="M61.0517 7.92005V10.3767C60.377 10.8535 59.315 11.1955 58.433 11.1955C56.5163 11.1955 55.0676 9.80974 55.0676 7.97379C55.0676 6.14709 56.5521 4.77039 58.5408 4.77039C59.4767 4.77039 60.4665 5.13038 61.1145 5.70636L60.2145 6.79508C59.7555 6.37209 59.1165 6.11109 58.5318 6.11109C57.4971 6.11109 56.7051 6.92107 56.7051 7.97379C56.7051 9.04451 57.506 9.85449 58.5498 9.85449C58.8738 9.85449 59.2877 9.73749 59.6657 9.5485V7.91954H61.0517V7.92005Z" fill="#343A40"/>
<path d="M66.5688 11.1239L63.6714 7.24551V11.1239H62.1685V4.82483H63.5812L66.4878 8.71246V4.82483H67.9815V11.1239H66.5688Z" fill="#343A40"/>
<path d="M69.9968 0.449219H41.2476V0.949205H69.9968V0.449219Z" fill="#343A40"/>
<path d="M28.7492 0.449219H0V0.949205H28.7492V0.449219Z" fill="#343A40"/>
</svg>
