<svg width="64" height="64" viewBox="0 0 64 64" fill="none" xmlns="http://www.w3.org/2000/svg">
<g opacity="0.6" clip-path="url(#clip0_1_2813)">
<path d="M61.5 0H2.5C1.11925 0 0 1.11925 0 2.5C0 3.88075 1.11925 5 2.5 5H5V56.5C5 57.8807 6.11925 59 7.5 59H10V61.5C10 62.8807 11.1193 64 12.5 64C13.8807 64 15 62.8807 15 61.5V59H49V61.5C49 62.8807 50.1193 64 51.5 64C52.8807 64 54 62.8807 54 61.5V59H56.5C57.8807 59 59 57.8807 59 56.5V5H61.5C62.8807 5 64 3.88075 64 2.5C64 1.11925 62.8807 0 61.5 0ZM29.5 5V54H10V5H29.5ZM54 54H34.5V5H54V54Z" fill="black"/>
<path d="M22 39C23.3807 39 24.5 37.8808 24.5 36.5V22.5C24.5 21.1193 23.3807 20 22 20C20.6193 20 19.5 21.1193 19.5 22.5V36.5C19.5 37.8808 20.6193 39 22 39Z" fill="black"/>
<path d="M42 39C43.3807 39 44.5 37.8808 44.5 36.5V22.5C44.5 21.1193 43.3807 20 42 20C40.6193 20 39.5 21.1193 39.5 22.5V36.5C39.5 37.8808 40.6193 39 42 39Z" fill="black"/>
</g>
<defs>
<clipPath id="clip0_1_2813">
<rect width="64" height="64" fill="white"/>
</clipPath>
</defs>
</svg>
