<svg width="64" height="64" viewBox="0 0 64 64" fill="none" xmlns="http://www.w3.org/2000/svg">
<g opacity="0.6">
<path d="M52 25C53.3807 25 54.5 23.8808 54.5 22.5V12.5C54.5 5.6075 48.8925 0 42 0H22C15.1075 0 9.5 5.6075 9.5 12.5V22.5C9.5 23.8808 10.6193 25 12 25H14.5V30.43C11.5903 31.462 9.5 34.2409 9.5 37.5V42.5C9.5 43.8807 10.6193 45 12 45H14.5V61.5C14.5 62.8807 15.6193 64 17 64C18.3807 64 19.5 62.8807 19.5 61.5V55H44.5V61.5C44.5 62.8807 45.6193 64 47 64C48.3807 64 49.5 62.8807 49.5 61.5V45H52C53.3807 45 54.5 43.8807 54.5 42.5V37.5C54.5 34.2409 52.4098 31.4621 49.5 30.43V25H52ZM14.5 12.5C14.5 8.3645 17.8645 5 22 5H42C46.1355 5 49.5 8.3645 49.5 12.5V20H14.5V12.5ZM44.5 50H19.5V45H44.5V50ZM49.5 40H14.5V37.5C14.5 36.1215 15.6215 35 17 35H47C48.3785 35 49.5 36.1215 49.5 37.5V40ZM44.5 30H19.5V25H44.5V30Z" fill="black"/>
</g>
</svg>
