<svg width="64" height="64" viewBox="0 0 64 64" fill="none" xmlns="http://www.w3.org/2000/svg">
<g opacity="0.6">
<path d="M59 22.43V14.5C59 10.3645 55.6355 7 51.5 7H37C35.0806 7 33.328 7.72562 32 8.91587C30.672 7.72562 28.9194 7 27 7H12.5C8.3645 7 5 10.3645 5 14.5V22.43C2.09025 23.462 0 26.2409 0 29.5V39.5C0 43.6355 3.3645 47 7.5 47H8.45487L5.26388 53.382C4.6465 54.617 5.147 56.1186 6.38188 56.7361C7.61688 57.3536 9.1185 56.853 9.736 55.6181L14.045 47.0001H49.9548L54.2637 55.6181C54.8812 56.853 56.383 57.3536 57.6179 56.7361C58.8527 56.1186 59.3534 54.617 58.7359 53.382L55.5449 47H56.5C60.6355 47 64 43.6355 64 39.5V29.5C64 26.2409 61.9098 23.462 59 22.43ZM37 12H51.5C52.8785 12 54 13.1215 54 14.5V22.43C51.0902 23.462 49 26.2409 49 29.5V32H34.5V14.5C34.5 13.1215 35.6215 12 37 12ZM12.5 12H27C28.3785 12 29.5 13.1215 29.5 14.5V32H15V29.5C15 26.2409 12.9097 23.462 10 22.43V14.5C10 13.1215 11.1215 12 12.5 12ZM59 39.5C59 40.8785 57.8785 42 56.5 42H7.5C6.1215 42 5 40.8785 5 39.5V29.5C5 28.1215 6.1215 27 7.5 27C8.8785 27 10 28.1215 10 29.5V34.5C10 35.8807 11.1193 37 12.5 37H51.5C52.8807 37 54 35.8807 54 34.5V29.5C54 28.1215 55.1215 27 56.5 27C57.8785 27 59 28.1215 59 29.5V39.5Z" fill="black"/>
</g>
</svg>
