<svg width="80" height="80" viewBox="0 0 80 80" fill="none" xmlns="http://www.w3.org/2000/svg">
<circle cx="40" cy="40" r="40" fill="black"/>
<path fill-rule="evenodd" clip-rule="evenodd" d="M51.4028 37.7995C51.7802 38.0223 52.0935 38.3426 52.3113 38.7282C52.5291 39.1138 52.6438 39.5512 52.6438 39.9964C52.6438 40.4416 52.5291 40.879 52.3113 41.2646C52.0935 41.6503 51.7802 41.9706 51.4028 42.1933L35.0768 51.8226C34.6999 52.0475 34.2712 52.166 33.8347 52.166C33.3982 52.166 32.9696 52.0475 32.5927 51.8226C32.2136 51.6018 31.8989 51.2819 31.6808 50.8958C31.4627 50.5098 31.3491 50.0714 31.3516 49.6256V30.3676C31.3519 29.9224 31.4669 29.4852 31.685 29.0998C31.9031 28.7143 32.2166 28.3943 32.594 28.1718C32.9714 27.9493 33.3996 27.8321 33.8354 27.832C34.2711 27.832 34.6993 27.949 35.0768 28.1714L51.4028 37.7995Z" fill="white"/>
</svg>
